<svg width="87" height="116" viewBox="0 0 87 116" fill="none" xmlns="http://www.w3.org/2000/svg">
<g clip-path="url(#clip0)">
<g filter="url(#filter0_dd)">
<rect x="0.0224609" width="86" height="116" rx="4" fill="#FDFDFD"/>
</g>
<rect x="4.02246" y="4" width="78" height="108" rx="1" fill="#E6E6E6"/>
<path d="M43.0225 42C39.393 48.8976 34.289 54.1942 27.0225 57.9998C34.2085 61.6693 39.0635 67.0894 43.0225 74C46.951 67.2389 52.0775 62.1648 59.0225 57.9998C51.8275 54.2647 46.782 49.1826 43.0225 42Z" fill="#FF4D75"/>
<path d="M18.0225 28C16.3211 31.2333 13.9286 33.716 10.5225 35.4999C13.8909 37.22 16.1667 39.7607 18.0225 43C19.8639 39.8307 22.267 37.4523 25.5225 35.4999C22.1498 33.7491 19.7847 31.3668 18.0225 28Z" fill="#FF4D75"/>
<path d="M11.1715 23.778C12.5495 24.714 14.6035 25.286 16.5795 25.286C21.9615 25.286 25.6795 22.114 25.6795 16.316C25.6795 11.246 23.1055 7.372 17.4115 7.372C13.3035 7.372 10.2095 9.842 10.2095 13.612C10.2095 17.304 13.2255 19.254 16.3455 19.254C17.9315 19.254 19.4915 18.63 20.3755 17.486V17.538C20.3755 19.644 18.5555 20.892 16.5795 20.892C15.3055 20.892 14.3695 20.658 13.3815 19.956L11.1715 23.778ZM20.4015 14.314C19.6735 14.808 18.8415 15.016 17.9575 15.016C16.7875 15.016 15.5395 14.574 15.5395 13.352C15.5395 12.52 16.2935 11.766 17.6455 11.766C19.5695 11.766 20.2975 13.144 20.4015 14.314Z" fill="#FF4D75"/>
<path d="M68.0225 94C66.3211 97.2333 63.9286 99.716 60.5225 101.5C63.8909 103.22 66.1667 105.761 68.0225 109C69.8639 105.831 72.267 103.452 75.5225 101.5C72.1498 99.7491 69.7847 97.3668 68.0225 94Z" fill="#FF4D75"/>
<path d="M61.1715 89.778C62.5495 90.714 64.6035 91.286 66.5795 91.286C71.9615 91.286 75.6795 88.114 75.6795 82.316C75.6795 77.246 73.1055 73.372 67.4115 73.372C63.3035 73.372 60.2095 75.842 60.2095 79.612C60.2095 83.304 63.2255 85.254 66.3455 85.254C67.9315 85.254 69.4915 84.63 70.3755 83.486V83.538C70.3755 85.644 68.5555 86.892 66.5795 86.892C65.3055 86.892 64.3695 86.658 63.3815 85.956L61.1715 89.778ZM70.4015 80.314C69.6735 80.808 68.8415 81.016 67.9575 81.016C66.7875 81.016 65.5395 80.574 65.5395 79.352C65.5395 78.52 66.2935 77.766 67.6455 77.766C69.5695 77.766 70.2975 79.144 70.4015 80.314Z" fill="#FF4D75"/>
</g>
<defs>
<filter id="filter0_dd" x="-0.977539" y="0" width="88" height="118" filterUnits="userSpaceOnUse" color-interpolation-filters="sRGB">
<feFlood flood-opacity="0" result="BackgroundImageFix"/>
<feColorMatrix in="SourceAlpha" type="matrix" values="0 0 0 0 0 0 0 0 0 0 0 0 0 0 0 0 0 0 127 0"/>
<feOffset dy="1"/>
<feColorMatrix type="matrix" values="0 0 0 0 0 0 0 0 0 0 0 0 0 0 0 0 0 0 0.103912 0"/>
<feBlend mode="normal" in2="BackgroundImageFix" result="effect1_dropShadow"/>
<feColorMatrix in="SourceAlpha" type="matrix" values="0 0 0 0 0 0 0 0 0 0 0 0 0 0 0 0 0 0 127 0"/>
<feOffset dy="1"/>
<feGaussianBlur stdDeviation="0.5"/>
<feColorMatrix type="matrix" values="0 0 0 0 0 0 0 0 0 0 0 0 0 0 0 0 0 0 0.195995 0"/>
<feBlend mode="normal" in2="effect1_dropShadow" result="effect2_dropShadow"/>
<feBlend mode="normal" in="SourceGraphic" in2="effect2_dropShadow" result="shape"/>
</filter>
<clipPath id="clip0">
<rect width="86" height="116" fill="white" transform="translate(0.0224609)"/>
</clipPath>
</defs>
</svg>
