<svg width="87" height="116" viewBox="0 0 87 116" fill="none" xmlns="http://www.w3.org/2000/svg">
<g clip-path="url(#clip0)">
<g filter="url(#filter0_dd)">
<rect x="0.0224609" width="86" height="116" rx="4" fill="#FDFDFD"/>
</g>
<rect x="4.02246" y="4" width="78" height="108" rx="1" fill="#E6E6E6"/>
<path d="M50.5213 42C45.077 42 43.0705 47.3135 43.0705 47.3135C43.0705 47.3135 40.7779 42 35.6196 42C29.9832 42 27.0225 47.1935 27.0225 52.3892C27.0225 61.0129 43.0705 74 43.0705 74C43.0705 74 59.0225 61.1158 59.0225 52.3892C59.0225 47.0905 55.9667 42 50.5213 42Z" fill="#FF4D75"/>
<path d="M21.5376 28C18.9855 28 18.045 30.4907 18.045 30.4907C18.045 30.4907 16.9703 28 14.5524 28C11.9103 28 10.5225 30.4344 10.5225 32.8699C10.5225 36.9123 18.045 43 18.045 43C18.045 43 25.5225 36.9606 25.5225 32.8699C25.5225 30.3862 24.0901 28 21.5376 28Z" fill="#FF4D75"/>
<path d="M10.3655 16.368C10.3655 21.438 12.9395 25.312 18.6335 25.312C22.7415 25.312 25.8355 22.842 25.8355 19.072C25.8355 15.38 22.8195 13.43 19.6995 13.43C18.1135 13.43 16.5535 14.054 15.6695 15.198V15.146C15.6695 13.04 17.4895 11.792 19.4655 11.792C20.7395 11.792 21.6755 12.052 22.6635 12.728L24.8735 8.906C23.4955 7.97 21.4415 7.398 19.4655 7.398C14.0835 7.398 10.3655 10.57 10.3655 16.368ZM20.5055 19.332C20.5055 20.164 19.7515 20.918 18.3995 20.918C16.4755 20.918 15.7475 19.54 15.6435 18.37C16.3715 17.876 17.2035 17.668 18.0875 17.668C19.2575 17.668 20.5055 18.11 20.5055 19.332Z" fill="#FF4D75"/>
<path d="M71.5376 94C68.9855 94 68.045 96.4907 68.045 96.4907C68.045 96.4907 66.9703 94 64.5524 94C61.9103 94 60.5225 96.4344 60.5225 98.8699C60.5225 102.912 68.045 109 68.045 109C68.045 109 75.5225 102.961 75.5225 98.8699C75.5225 96.3862 74.0901 94 71.5376 94Z" fill="#FF4D75"/>
<path d="M60.3655 82.368C60.3655 87.438 62.9395 91.312 68.6335 91.312C72.7415 91.312 75.8355 88.842 75.8355 85.072C75.8355 81.38 72.8195 79.43 69.6995 79.43C68.1135 79.43 66.5535 80.054 65.6695 81.198V81.146C65.6695 79.04 67.4895 77.792 69.4655 77.792C70.7395 77.792 71.6755 78.052 72.6635 78.728L74.8735 74.906C73.4955 73.97 71.4415 73.398 69.4655 73.398C64.0835 73.398 60.3655 76.57 60.3655 82.368ZM70.5055 85.332C70.5055 86.164 69.7515 86.918 68.3995 86.918C66.4755 86.918 65.7475 85.54 65.6435 84.37C66.3715 83.876 67.2035 83.668 68.0875 83.668C69.2575 83.668 70.5055 84.11 70.5055 85.332Z" fill="#FF4D75"/>
</g>
<defs>
<filter id="filter0_dd" x="-0.977539" y="0" width="88" height="118" filterUnits="userSpaceOnUse" color-interpolation-filters="sRGB">
<feFlood flood-opacity="0" result="BackgroundImageFix"/>
<feColorMatrix in="SourceAlpha" type="matrix" values="0 0 0 0 0 0 0 0 0 0 0 0 0 0 0 0 0 0 127 0"/>
<feOffset dy="1"/>
<feColorMatrix type="matrix" values="0 0 0 0 0 0 0 0 0 0 0 0 0 0 0 0 0 0 0.103912 0"/>
<feBlend mode="normal" in2="BackgroundImageFix" result="effect1_dropShadow"/>
<feColorMatrix in="SourceAlpha" type="matrix" values="0 0 0 0 0 0 0 0 0 0 0 0 0 0 0 0 0 0 127 0"/>
<feOffset dy="1"/>
<feGaussianBlur stdDeviation="0.5"/>
<feColorMatrix type="matrix" values="0 0 0 0 0 0 0 0 0 0 0 0 0 0 0 0 0 0 0.195995 0"/>
<feBlend mode="normal" in2="effect1_dropShadow" result="effect2_dropShadow"/>
<feBlend mode="normal" in="SourceGraphic" in2="effect2_dropShadow" result="shape"/>
</filter>
<clipPath id="clip0">
<rect width="86" height="116" fill="white" transform="translate(0.0224609)"/>
</clipPath>
</defs>
</svg>
