<svg width="86" height="116" viewBox="0 0 86 116" fill="none" xmlns="http://www.w3.org/2000/svg">
<g clip-path="url(#clip0)">
<g filter="url(#filter0_dd)">
<rect x="0.0224609" width="86" height="116" rx="4" fill="#FDFDFD"/>
</g>
<rect x="4" y="4" width="78" height="108" rx="1" fill="#6475B5"/>
<rect opacity="0.5" x="4" y="4" width="26" height="27" fill="black" fill-opacity="0.2"/>
<rect opacity="0.7" x="4" y="31" width="26" height="27" fill="black" fill-opacity="0.2"/>
<rect opacity="0.7" x="30" y="4" width="26" height="27" fill="black" fill-opacity="0.2"/>
<rect opacity="0.2" x="30" y="31" width="26" height="27" fill="black" fill-opacity="0.2"/>
<rect opacity="0.9" x="56" y="4" width="26" height="27" fill="black" fill-opacity="0.2"/>
<rect opacity="0.1" x="56" y="31" width="26" height="27" fill="black" fill-opacity="0.2"/>
<rect opacity="0.3" x="4" y="58" width="26" height="27" fill="black" fill-opacity="0.2"/>
<rect opacity="0.4" x="30" y="58" width="26" height="27" fill="black" fill-opacity="0.2"/>
<rect opacity="0.7" x="56" y="58" width="26" height="27" fill="black" fill-opacity="0.2"/>
<rect opacity="0.21" x="4" y="85" width="26" height="27" fill="black" fill-opacity="0.2"/>
<rect opacity="0.7" x="30" y="85" width="26" height="27" fill="black" fill-opacity="0.2"/>
<rect x="56" y="85" width="26" height="27" fill="black" fill-opacity="0.2"/>
</g>
<defs>
<filter id="filter0_dd" x="-0.977539" y="0" width="88" height="118" filterUnits="userSpaceOnUse" color-interpolation-filters="sRGB">
<feFlood flood-opacity="0" result="BackgroundImageFix"/>
<feColorMatrix in="SourceAlpha" type="matrix" values="0 0 0 0 0 0 0 0 0 0 0 0 0 0 0 0 0 0 127 0"/>
<feOffset dy="1"/>
<feColorMatrix type="matrix" values="0 0 0 0 0 0 0 0 0 0 0 0 0 0 0 0 0 0 0.103912 0"/>
<feBlend mode="normal" in2="BackgroundImageFix" result="effect1_dropShadow"/>
<feColorMatrix in="SourceAlpha" type="matrix" values="0 0 0 0 0 0 0 0 0 0 0 0 0 0 0 0 0 0 127 0"/>
<feOffset dy="1"/>
<feGaussianBlur stdDeviation="0.5"/>
<feColorMatrix type="matrix" values="0 0 0 0 0 0 0 0 0 0 0 0 0 0 0 0 0 0 0.195995 0"/>
<feBlend mode="normal" in2="effect1_dropShadow" result="effect2_dropShadow"/>
<feBlend mode="normal" in="SourceGraphic" in2="effect2_dropShadow" result="shape"/>
</filter>
<clipPath id="clip0">
<rect width="86" height="116" fill="white"/>
</clipPath>
</defs>
</svg>
