<svg width="85" height="115" viewBox="0 0 85 115" fill="none" xmlns="http://www.w3.org/2000/svg">
<g clip-path="url(#clip0)">
<g filter="url(#filter0_dd)">
<rect width="84.0455" height="114.034" rx="4" fill="#FDFDFD"/>
</g>
<rect x="3.90909" y="3.93225" width="76.2273" height="106.169" rx="1" fill="#E6E6E6"/>
<path fill-rule="evenodd" clip-rule="evenodd" d="M73.0014 99.965L73.0053 99.963C73.0053 99.963 67.4603 93.0714 67.1025 92.6915C66.7447 92.312 66.1646 92.312 65.807 92.6915C65.4616 93.0578 60.3779 99.3939 60.0174 99.8434C59.4656 100.424 59.125 101.209 59.125 102.076C59.125 103.86 60.5607 105.307 62.3317 105.307C63.6109 105.307 64.7119 104.55 65.2266 103.459C65.3618 104.788 65.1966 106.871 62.7969 107.157H70.1221C70.1221 107.157 67.3735 106.878 67.6866 103.467C68.2029 104.554 69.3014 105.307 70.5774 105.307C72.3482 105.307 73.7841 103.86 73.7841 102.076C73.7841 101.268 73.4879 100.532 73.0014 99.965Z" fill="#0C0815"/>
<path d="M58.734 84.1177C58.734 87.6537 62.608 89.0577 66.456 89.0577C70.304 89.0577 74.178 87.6537 74.178 84.1177C74.178 82.2457 72.826 80.6337 70.85 79.8017C72.67 79.0477 73.892 77.8257 73.892 75.7977C73.892 72.3917 70.018 71.1437 66.456 71.1437C62.894 71.1437 59.02 72.3917 59.02 75.7977C59.02 77.8257 60.216 79.0477 62.036 79.8017C60.06 80.6337 58.734 82.2457 58.734 84.1177ZM68.536 76.5777C68.536 77.2537 67.522 77.7997 66.456 77.9557C65.39 77.7997 64.35 77.2537 64.35 76.5777C64.35 75.9017 65.13 75.4077 66.456 75.4077C67.756 75.4077 68.536 75.9017 68.536 76.5777ZM68.848 83.5457C68.848 84.2997 67.886 84.7937 66.456 84.7937C64.974 84.7937 64.064 84.2997 64.064 83.5457C64.064 82.7397 65.338 82.1937 66.456 82.0377C67.548 82.1937 68.848 82.7397 68.848 83.5457Z" fill="#0C0815"/>
<path fill-rule="evenodd" clip-rule="evenodd" d="M55.9894 57.4126L55.9977 57.4082C55.9977 57.4082 44.1683 42.7061 43.4051 41.8956C42.6418 41.0861 41.4041 41.0861 40.6413 41.8956C39.9045 42.6771 29.0592 56.1941 28.2901 57.1531C27.113 58.3912 26.3864 60.0668 26.3864 61.9164C26.3864 65.7228 29.4491 68.8086 33.2273 68.8086C35.9563 68.8086 38.3052 67.1944 39.4031 64.8661C39.6914 67.7017 39.3391 72.1451 34.2197 72.7546H49.8468C49.8468 72.7546 43.9831 72.1603 44.6511 64.8838C45.7525 67.2028 48.096 68.8086 50.8182 68.8086C54.5958 68.8086 57.6591 65.7228 57.6591 61.9164C57.6591 60.1931 57.0273 58.6212 55.9894 57.4126Z" fill="#0C0815"/>
<path fill-rule="evenodd" clip-rule="evenodd" d="M24.1378 35.0837L24.1417 35.0816C24.1417 35.0816 18.5966 28.1901 18.2389 27.8101C17.8811 27.4306 17.3009 27.4306 16.9434 27.8101C16.598 28.1765 11.5142 34.5125 11.1537 34.962C10.6019 35.5424 10.2614 36.3279 10.2614 37.1949C10.2614 38.9791 11.697 40.4256 13.468 40.4256C14.7473 40.4256 15.8483 39.6689 16.363 38.5775C16.4981 39.9067 16.333 41.9896 13.9332 42.2753H21.2584C21.2584 42.2753 18.5098 41.9967 18.8229 38.5858C19.3392 39.6729 20.4377 40.4256 21.7138 40.4256C23.4845 40.4256 24.9204 38.9791 24.9204 37.1949C24.9204 36.3871 24.6243 35.6503 24.1378 35.0837Z" fill="#0C0815"/>
<path d="M9.87034 19.2364C9.87034 22.7724 13.7443 24.1764 17.5923 24.1764C21.4403 24.1764 25.3143 22.7724 25.3143 19.2364C25.3143 17.3644 23.9623 15.7524 21.9863 14.9204C23.8063 14.1664 25.0283 12.9444 25.0283 10.9164C25.0283 7.51038 21.1543 6.26238 17.5923 6.26238C14.0303 6.26238 10.1563 7.51038 10.1563 10.9164C10.1563 12.9444 11.3523 14.1664 13.1723 14.9204C11.1963 15.7524 9.87034 17.3644 9.87034 19.2364ZM19.6723 11.6964C19.6723 12.3724 18.6583 12.9184 17.5923 13.0744C16.5263 12.9184 15.4863 12.3724 15.4863 11.6964C15.4863 11.0204 16.2663 10.5264 17.5923 10.5264C18.8923 10.5264 19.6723 11.0204 19.6723 11.6964ZM19.9843 18.6644C19.9843 19.4184 19.0223 19.9124 17.5923 19.9124C16.1103 19.9124 15.2003 19.4184 15.2003 18.6644C15.2003 17.8584 16.4743 17.3124 17.5923 17.1564C18.6843 17.3124 19.9843 17.8584 19.9843 18.6644Z" fill="#0C0815"/>
</g>
<defs>
<filter id="filter0_dd" x="-1" y="0" width="86.0455" height="116.034" filterUnits="userSpaceOnUse" color-interpolation-filters="sRGB">
<feFlood flood-opacity="0" result="BackgroundImageFix"/>
<feColorMatrix in="SourceAlpha" type="matrix" values="0 0 0 0 0 0 0 0 0 0 0 0 0 0 0 0 0 0 127 0"/>
<feOffset dy="1"/>
<feColorMatrix type="matrix" values="0 0 0 0 0 0 0 0 0 0 0 0 0 0 0 0 0 0 0.103912 0"/>
<feBlend mode="normal" in2="BackgroundImageFix" result="effect1_dropShadow"/>
<feColorMatrix in="SourceAlpha" type="matrix" values="0 0 0 0 0 0 0 0 0 0 0 0 0 0 0 0 0 0 127 0"/>
<feOffset dy="1"/>
<feGaussianBlur stdDeviation="0.5"/>
<feColorMatrix type="matrix" values="0 0 0 0 0 0 0 0 0 0 0 0 0 0 0 0 0 0 0.195995 0"/>
<feBlend mode="normal" in2="effect1_dropShadow" result="effect2_dropShadow"/>
<feBlend mode="normal" in="SourceGraphic" in2="effect2_dropShadow" result="shape"/>
</filter>
<clipPath id="clip0">
<rect width="84.0455" height="114.034" fill="white"/>
</clipPath>
</defs>
</svg>
