<svg width="87" height="116" viewBox="0 0 87 116" fill="none" xmlns="http://www.w3.org/2000/svg">
<g clip-path="url(#clip0)">
<g filter="url(#filter0_dd)">
<rect x="0.0224609" width="86" height="116" rx="4" fill="#FDFDFD"/>
</g>
<rect x="4.02246" y="4" width="78" height="108" rx="1" fill="#E6E6E6"/>
<path d="M50.5213 42C45.077 42 43.0705 47.3135 43.0705 47.3135C43.0705 47.3135 40.7779 42 35.6196 42C29.9832 42 27.0225 47.1935 27.0225 52.3892C27.0225 61.0129 43.0705 74 43.0705 74C43.0705 74 59.0225 61.1158 59.0225 52.3892C59.0225 47.0905 55.9667 42 50.5213 42Z" fill="#FF4D75"/>
<path d="M21.5376 28C18.9855 28 18.045 30.4907 18.045 30.4907C18.045 30.4907 16.9703 28 14.5524 28C11.9103 28 10.5225 30.4344 10.5225 32.8699C10.5225 36.9123 18.045 43 18.045 43C18.045 43 25.5225 36.9606 25.5225 32.8699C25.5225 30.3862 24.0901 28 21.5376 28Z" fill="#FF4D75"/>
<path d="M10.311 22.608C11.767 24.168 14.367 25.312 17.799 25.312C22.297 25.312 25.339 23.206 25.339 20.112C25.339 17.72 23.155 16.264 21.231 16.056C23.441 15.692 25.053 14.054 25.053 12.208C25.053 9.348 22.609 7.398 17.825 7.398C14.445 7.398 12.079 8.568 10.545 10.258L12.937 13.43C14.133 12.442 15.771 11.818 17.253 11.818C18.761 11.818 19.827 12.26 19.827 13.066C19.827 13.69 19.099 14.106 17.435 14.106C16.811 14.106 15.251 14.106 14.913 14.08V18.526C15.173 18.5 16.681 18.474 17.435 18.474C19.749 18.474 20.113 18.968 20.113 19.592C20.113 20.294 19.307 20.918 17.591 20.918C16.265 20.918 14.237 20.372 12.885 19.202L10.311 22.608Z" fill="#FF4D75"/>
<path d="M71.5376 94C68.9855 94 68.045 96.4907 68.045 96.4907C68.045 96.4907 66.9703 94 64.5524 94C61.9103 94 60.5225 96.4344 60.5225 98.8699C60.5225 102.912 68.045 109 68.045 109C68.045 109 75.5225 102.961 75.5225 98.8699C75.5225 96.3862 74.0901 94 71.5376 94Z" fill="#FF4D75"/>
<path d="M60.311 88.608C61.767 90.168 64.367 91.312 67.799 91.312C72.297 91.312 75.339 89.206 75.339 86.112C75.339 83.72 73.155 82.264 71.231 82.056C73.441 81.692 75.053 80.054 75.053 78.208C75.053 75.348 72.609 73.398 67.825 73.398C64.445 73.398 62.079 74.568 60.545 76.258L62.937 79.43C64.133 78.442 65.771 77.818 67.253 77.818C68.761 77.818 69.827 78.26 69.827 79.066C69.827 79.69 69.099 80.106 67.435 80.106C66.811 80.106 65.251 80.106 64.913 80.08V84.526C65.173 84.5 66.681 84.474 67.435 84.474C69.749 84.474 70.113 84.968 70.113 85.592C70.113 86.294 69.307 86.918 67.591 86.918C66.265 86.918 64.237 86.372 62.885 85.202L60.311 88.608Z" fill="#FF4D75"/>
</g>
<defs>
<filter id="filter0_dd" x="-0.977539" y="0" width="88" height="118" filterUnits="userSpaceOnUse" color-interpolation-filters="sRGB">
<feFlood flood-opacity="0" result="BackgroundImageFix"/>
<feColorMatrix in="SourceAlpha" type="matrix" values="0 0 0 0 0 0 0 0 0 0 0 0 0 0 0 0 0 0 127 0"/>
<feOffset dy="1"/>
<feColorMatrix type="matrix" values="0 0 0 0 0 0 0 0 0 0 0 0 0 0 0 0 0 0 0.103912 0"/>
<feBlend mode="normal" in2="BackgroundImageFix" result="effect1_dropShadow"/>
<feColorMatrix in="SourceAlpha" type="matrix" values="0 0 0 0 0 0 0 0 0 0 0 0 0 0 0 0 0 0 127 0"/>
<feOffset dy="1"/>
<feGaussianBlur stdDeviation="0.5"/>
<feColorMatrix type="matrix" values="0 0 0 0 0 0 0 0 0 0 0 0 0 0 0 0 0 0 0.195995 0"/>
<feBlend mode="normal" in2="effect1_dropShadow" result="effect2_dropShadow"/>
<feBlend mode="normal" in="SourceGraphic" in2="effect2_dropShadow" result="shape"/>
</filter>
<clipPath id="clip0">
<rect width="86" height="116" fill="white" transform="translate(0.0224609)"/>
</clipPath>
</defs>
</svg>
