<svg width="85" height="115" viewBox="0 0 85 115" fill="none" xmlns="http://www.w3.org/2000/svg">
<g clip-path="url(#clip0)">
<g filter="url(#filter0_dd)">
<rect width="84.0455" height="114.034" rx="4" fill="#FDFDFD"/>
</g>
<rect x="3.90912" y="3.93225" width="76.2273" height="106.169" rx="1" fill="#E6E6E6"/>
<path d="M70.5454 98.0948C70.0422 98.0948 69.5716 98.2158 69.1469 98.4151C69.7477 97.7764 70.1236 96.933 70.1236 95.9991C70.1236 94.0149 68.4699 92.4067 66.4298 92.4067C64.39 92.4067 62.7361 94.0149 62.7361 95.9989C62.7361 96.8775 63.0732 97.6718 63.6115 98.296C63.229 98.1416 62.8105 98.0545 62.3705 98.0545C60.5783 98.0545 59.125 99.468 59.125 101.211C59.125 102.954 60.5783 104.367 62.3705 104.367C63.5647 104.367 64.597 103.733 65.1605 102.799C65.3403 103.639 65.8139 106.796 62.8616 107.153H69.8432C69.8432 107.153 66.8036 106.838 67.6943 102.708C68.2376 103.706 69.3034 104.394 70.5454 104.394C72.334 104.394 73.7841 102.984 73.7841 101.244C73.7841 99.5044 72.334 98.0948 70.5454 98.0948Z" fill="#0C0815"/>
<path d="M59.1488 86.6137C60.8388 88.1477 63.3088 89.0577 66.4028 89.0577C71.2648 89.0577 74.1248 86.6397 74.1248 82.8177C74.1248 79.3597 71.4988 77.2017 68.5348 77.2017C67.0788 77.2017 65.7528 77.7217 64.6608 78.5277V75.7717H72.9288V71.4037H59.6688V81.8297L63.2828 82.6617C64.1668 81.8297 65.1808 81.4657 66.5068 81.4657C68.1188 81.4657 68.7948 82.1417 68.7948 83.0257C68.7948 83.8577 68.0928 84.6637 66.3508 84.6637C64.8428 84.6637 63.0748 84.1437 61.8788 83.1557L59.1488 86.6137Z" fill="#0C0815"/>
<path d="M50.75 53.4227C49.6765 53.4227 48.6724 53.6808 47.7665 54.106C49.0481 52.7434 49.8499 50.9442 49.8499 48.9518C49.8499 44.7188 46.3221 41.2881 41.9699 41.2881C37.6183 41.2881 34.09 44.7188 34.09 48.9513C34.09 50.8257 34.8092 52.5202 35.9575 53.8519C35.1415 53.5225 34.2488 53.3367 33.3101 53.3367C29.4867 53.3367 26.3864 56.352 26.3864 60.0708C26.3864 63.7891 29.4867 66.8035 33.3101 66.8035C35.8578 66.8035 38.06 65.4507 39.262 63.4583C39.6456 65.2511 40.656 71.9862 34.3577 72.7457H49.2519C49.2519 72.7457 42.7674 72.0757 44.6676 63.2651C45.8266 65.3941 48.1002 66.86 50.75 66.86C54.5656 66.86 57.6591 63.8526 57.6591 60.1411C57.6591 56.4297 54.5656 53.4227 50.75 53.4227Z" fill="#0C0815"/>
<path d="M21.6818 33.2135C21.1786 33.2135 20.7079 33.3345 20.2833 33.5338C20.8841 32.895 21.2599 32.0517 21.2599 31.1178C21.2599 29.1335 19.6062 27.5254 17.5662 27.5254C15.5263 27.5254 13.8724 29.1335 13.8724 31.1175C13.8724 31.9962 14.2096 32.7904 14.7478 33.4147C14.3653 33.2603 13.9469 33.1732 13.5069 33.1732C11.7146 33.1732 10.2614 34.5866 10.2614 36.3298C10.2614 38.0728 11.7146 39.4857 13.5069 39.4857C14.7011 39.4857 15.7334 38.8516 16.2968 37.9177C16.4766 38.7581 16.9503 41.9151 13.9979 42.2712H20.9796C20.9796 42.2712 17.94 41.9571 18.8307 37.8271C19.374 38.8251 20.4397 39.5122 21.6818 39.5122C23.4704 39.5122 24.9204 38.1025 24.9204 36.3628C24.9204 34.623 23.4704 33.2135 21.6818 33.2135Z" fill="#0C0815"/>
<path d="M10.2851 21.7324C11.9751 23.2664 14.4451 24.1764 17.5391 24.1764C22.4011 24.1764 25.2611 21.7584 25.2611 17.9364C25.2611 14.4784 22.6351 12.3204 19.6711 12.3204C18.2151 12.3204 16.8891 12.8404 15.7971 13.6464V10.8904H24.0651V6.52238H10.8051V16.9484L14.4191 17.7804C15.3031 16.9484 16.3171 16.5844 17.6431 16.5844C19.2551 16.5844 19.9311 17.2604 19.9311 18.1444C19.9311 18.9764 19.2291 19.7824 17.4871 19.7824C15.9791 19.7824 14.2111 19.2624 13.0151 18.2744L10.2851 21.7324Z" fill="#0C0815"/>
</g>
<defs>
<filter id="filter0_dd" x="-1" y="0" width="86.0455" height="116.034" filterUnits="userSpaceOnUse" color-interpolation-filters="sRGB">
<feFlood flood-opacity="0" result="BackgroundImageFix"/>
<feColorMatrix in="SourceAlpha" type="matrix" values="0 0 0 0 0 0 0 0 0 0 0 0 0 0 0 0 0 0 127 0"/>
<feOffset dy="1"/>
<feColorMatrix type="matrix" values="0 0 0 0 0 0 0 0 0 0 0 0 0 0 0 0 0 0 0.103912 0"/>
<feBlend mode="normal" in2="BackgroundImageFix" result="effect1_dropShadow"/>
<feColorMatrix in="SourceAlpha" type="matrix" values="0 0 0 0 0 0 0 0 0 0 0 0 0 0 0 0 0 0 127 0"/>
<feOffset dy="1"/>
<feGaussianBlur stdDeviation="0.5"/>
<feColorMatrix type="matrix" values="0 0 0 0 0 0 0 0 0 0 0 0 0 0 0 0 0 0 0.195995 0"/>
<feBlend mode="normal" in2="effect1_dropShadow" result="effect2_dropShadow"/>
<feBlend mode="normal" in="SourceGraphic" in2="effect2_dropShadow" result="shape"/>
</filter>
<clipPath id="clip0">
<rect width="84.0455" height="114.034" fill="white"/>
</clipPath>
</defs>
</svg>
