<svg width="85" height="115" viewBox="0 0 85 115" fill="none" xmlns="http://www.w3.org/2000/svg">
<g clip-path="url(#clip0)">
<g filter="url(#filter0_dd)">
<rect width="84.0455" height="114.034" rx="4" fill="#FDFDFD"/>
</g>
<rect x="3.90912" y="3.93225" width="76.2273" height="106.169" rx="1" fill="#E6E6E6"/>
<path fill-rule="evenodd" clip-rule="evenodd" d="M73.0014 99.965L73.0053 99.963C73.0053 99.963 67.4603 93.0714 67.1025 92.6915C66.7447 92.312 66.1646 92.312 65.807 92.6915C65.4616 93.0578 60.3779 99.3939 60.0174 99.8434C59.4656 100.424 59.125 101.209 59.125 102.076C59.125 103.86 60.5607 105.307 62.3317 105.307C63.6109 105.307 64.7119 104.55 65.2266 103.459C65.3618 104.788 65.1966 106.871 62.7969 107.157H70.1221C70.1221 107.157 67.3735 106.878 67.6866 103.467C68.2029 104.554 69.3014 105.307 70.5774 105.307C72.3482 105.307 73.7841 103.86 73.7841 102.076C73.7841 101.268 73.4879 100.532 73.0014 99.965Z" fill="#0C0815"/>
<path d="M59.1488 86.6137C60.8388 88.1477 63.3088 89.0577 66.4028 89.0577C71.2648 89.0577 74.1248 86.6397 74.1248 82.8177C74.1248 79.3597 71.4988 77.2017 68.5348 77.2017C67.0788 77.2017 65.7528 77.7217 64.6608 78.5277V75.7717H72.9288V71.4037H59.6688V81.8297L63.2828 82.6617C64.1668 81.8297 65.1808 81.4657 66.5068 81.4657C68.1188 81.4657 68.7948 82.1417 68.7948 83.0257C68.7948 83.8577 68.0928 84.6637 66.3508 84.6637C64.8428 84.6637 63.0748 84.1437 61.8788 83.1557L59.1488 86.6137Z" fill="#0C0815"/>
<path fill-rule="evenodd" clip-rule="evenodd" d="M55.9894 57.4126L55.9977 57.4082C55.9977 57.4082 44.1683 42.7061 43.4051 41.8956C42.6418 41.0861 41.4041 41.0861 40.6413 41.8956C39.9045 42.6771 29.0592 56.1941 28.2901 57.1531C27.113 58.3912 26.3864 60.0668 26.3864 61.9164C26.3864 65.7228 29.4491 68.8086 33.2273 68.8086C35.9563 68.8086 38.3052 67.1944 39.4031 64.8661C39.6914 67.7017 39.3391 72.1451 34.2197 72.7546H49.8468C49.8468 72.7546 43.9831 72.1603 44.6511 64.8838C45.7525 67.2028 48.096 68.8086 50.8182 68.8086C54.5958 68.8086 57.6591 65.7228 57.6591 61.9164C57.6591 60.1931 57.0273 58.6212 55.9894 57.4126Z" fill="#0C0815"/>
<path fill-rule="evenodd" clip-rule="evenodd" d="M24.1378 35.0837L24.1417 35.0816C24.1417 35.0816 18.5966 28.1901 18.2389 27.8101C17.8811 27.4306 17.3009 27.4306 16.9434 27.8101C16.598 28.1765 11.5142 34.5125 11.1537 34.962C10.6019 35.5424 10.2614 36.3279 10.2614 37.1949C10.2614 38.9791 11.697 40.4256 13.468 40.4256C14.7473 40.4256 15.8483 39.6689 16.363 38.5775C16.4981 39.9067 16.333 41.9896 13.9332 42.2753H21.2584C21.2584 42.2753 18.5098 41.9967 18.8229 38.5858C19.3392 39.6729 20.4377 40.4256 21.7138 40.4256C23.4845 40.4256 24.9204 38.9791 24.9204 37.1949C24.9204 36.3871 24.6243 35.6503 24.1378 35.0837Z" fill="#0C0815"/>
<path d="M10.2851 21.7324C11.9751 23.2664 14.4451 24.1764 17.5391 24.1764C22.4011 24.1764 25.2611 21.7584 25.2611 17.9364C25.2611 14.4784 22.6351 12.3204 19.6711 12.3204C18.2151 12.3204 16.8891 12.8404 15.7971 13.6464V10.8904H24.0651V6.52238H10.8051V16.9484L14.4191 17.7804C15.3031 16.9484 16.3171 16.5844 17.6431 16.5844C19.2551 16.5844 19.9311 17.2604 19.9311 18.1444C19.9311 18.9764 19.2291 19.7824 17.4871 19.7824C15.9791 19.7824 14.2111 19.2624 13.0151 18.2744L10.2851 21.7324Z" fill="#0C0815"/>
</g>
<defs>
<filter id="filter0_dd" x="-1" y="0" width="86.0455" height="116.034" filterUnits="userSpaceOnUse" color-interpolation-filters="sRGB">
<feFlood flood-opacity="0" result="BackgroundImageFix"/>
<feColorMatrix in="SourceAlpha" type="matrix" values="0 0 0 0 0 0 0 0 0 0 0 0 0 0 0 0 0 0 127 0"/>
<feOffset dy="1"/>
<feColorMatrix type="matrix" values="0 0 0 0 0 0 0 0 0 0 0 0 0 0 0 0 0 0 0.103912 0"/>
<feBlend mode="normal" in2="BackgroundImageFix" result="effect1_dropShadow"/>
<feColorMatrix in="SourceAlpha" type="matrix" values="0 0 0 0 0 0 0 0 0 0 0 0 0 0 0 0 0 0 127 0"/>
<feOffset dy="1"/>
<feGaussianBlur stdDeviation="0.5"/>
<feColorMatrix type="matrix" values="0 0 0 0 0 0 0 0 0 0 0 0 0 0 0 0 0 0 0.195995 0"/>
<feBlend mode="normal" in2="effect1_dropShadow" result="effect2_dropShadow"/>
<feBlend mode="normal" in="SourceGraphic" in2="effect2_dropShadow" result="shape"/>
</filter>
<clipPath id="clip0">
<rect width="84.0455" height="114.034" fill="white"/>
</clipPath>
</defs>
</svg>
