<svg width="85" height="115" viewBox="0 0 85 115" fill="none" xmlns="http://www.w3.org/2000/svg">
<g clip-path="url(#clip0)">
<g filter="url(#filter0_dd)">
<rect width="84.0455" height="114.034" rx="4" fill="#FDFDFD"/>
</g>
<rect x="3.90906" y="3.93225" width="76.2273" height="106.169" rx="1" fill="#E6E6E6"/>
<path d="M70.5454 98.0948C70.0422 98.0948 69.5716 98.2158 69.1469 98.4151C69.7477 97.7764 70.1236 96.933 70.1236 95.9991C70.1236 94.0149 68.4699 92.4067 66.4298 92.4067C64.39 92.4067 62.7361 94.0149 62.7361 95.9989C62.7361 96.8775 63.0732 97.6718 63.6115 98.296C63.229 98.1416 62.8105 98.0545 62.3705 98.0545C60.5783 98.0545 59.125 99.468 59.125 101.211C59.125 102.954 60.5783 104.367 62.3705 104.367C63.5647 104.367 64.597 103.733 65.1605 102.799C65.3403 103.639 65.8139 106.796 62.8616 107.153H69.8432C69.8432 107.153 66.8036 106.838 67.6943 102.708C68.2376 103.706 69.3034 104.394 70.5454 104.394C72.334 104.394 73.7841 102.984 73.7841 101.244C73.7841 99.5044 72.334 98.0948 70.5454 98.0948Z" fill="#0C0815"/>
<path d="M70.4589 88.7457H76.1529L69.7569 71.4037H63.1529L56.7569 88.7457H62.4509L63.1269 86.5097H69.7829L70.4589 88.7457ZM66.4549 76.0317L68.4309 82.1417H64.4789L66.4549 76.0317Z" fill="#0C0815"/>
<path d="M50.75 53.4227C49.6765 53.4227 48.6724 53.6808 47.7665 54.106C49.0481 52.7434 49.8499 50.9442 49.8499 48.9518C49.8499 44.7188 46.3221 41.2881 41.9699 41.2881C37.6183 41.2881 34.09 44.7188 34.09 48.9513C34.09 50.8257 34.8092 52.5202 35.9575 53.8519C35.1415 53.5225 34.2488 53.3367 33.3101 53.3367C29.4867 53.3367 26.3864 56.352 26.3864 60.0708C26.3864 63.7891 29.4867 66.8035 33.3101 66.8035C35.8578 66.8035 38.06 65.4507 39.262 63.4583C39.6456 65.2511 40.656 71.9862 34.3577 72.7457H49.2519C49.2519 72.7457 42.7674 72.0757 44.6676 63.2651C45.8266 65.3941 48.1002 66.86 50.75 66.86C54.5656 66.86 57.6591 63.8526 57.6591 60.1411C57.6591 56.4297 54.5656 53.4227 50.75 53.4227Z" fill="#0C0815"/>
<path d="M21.6819 33.2135C21.1787 33.2135 20.708 33.3345 20.2834 33.5338C20.8842 32.895 21.26 32.0517 21.26 31.1178C21.26 29.1335 19.6064 27.5254 17.5663 27.5254C15.5264 27.5254 13.8725 29.1335 13.8725 31.1175C13.8725 31.9962 14.2097 32.7904 14.7479 33.4147C14.3654 33.2603 13.947 33.1732 13.507 33.1732C11.7147 33.1732 10.2615 34.5866 10.2615 36.3298C10.2615 38.0728 11.7147 39.4857 13.507 39.4857C14.7012 39.4857 15.7335 38.8516 16.2969 37.9177C16.4767 38.7581 16.9504 41.9151 13.9981 42.2712H20.9797C20.9797 42.2712 17.9401 41.9571 18.8308 37.8271C19.3741 38.8251 20.4398 39.5122 21.6819 39.5122C23.4705 39.5122 24.9206 38.1025 24.9206 36.3628C24.9206 34.623 23.4705 33.2135 21.6819 33.2135Z" fill="#0C0815"/>
<path d="M21.5954 23.8644H27.2894L20.8934 6.52238H14.2894L7.89338 23.8644H13.5874L14.2634 21.6284H20.9194L21.5954 23.8644ZM17.5914 11.1504L19.5674 17.2604H15.6154L17.5914 11.1504Z" fill="#0C0815"/>
</g>
<defs>
<filter id="filter0_dd" x="-1" y="0" width="86.0455" height="116.034" filterUnits="userSpaceOnUse" color-interpolation-filters="sRGB">
<feFlood flood-opacity="0" result="BackgroundImageFix"/>
<feColorMatrix in="SourceAlpha" type="matrix" values="0 0 0 0 0 0 0 0 0 0 0 0 0 0 0 0 0 0 127 0"/>
<feOffset dy="1"/>
<feColorMatrix type="matrix" values="0 0 0 0 0 0 0 0 0 0 0 0 0 0 0 0 0 0 0.103912 0"/>
<feBlend mode="normal" in2="BackgroundImageFix" result="effect1_dropShadow"/>
<feColorMatrix in="SourceAlpha" type="matrix" values="0 0 0 0 0 0 0 0 0 0 0 0 0 0 0 0 0 0 127 0"/>
<feOffset dy="1"/>
<feGaussianBlur stdDeviation="0.5"/>
<feColorMatrix type="matrix" values="0 0 0 0 0 0 0 0 0 0 0 0 0 0 0 0 0 0 0.195995 0"/>
<feBlend mode="normal" in2="effect1_dropShadow" result="effect2_dropShadow"/>
<feBlend mode="normal" in="SourceGraphic" in2="effect2_dropShadow" result="shape"/>
</filter>
<clipPath id="clip0">
<rect width="84.0455" height="114.034" fill="white"/>
</clipPath>
</defs>
</svg>
