<svg width="85" height="115" viewBox="0 0 85 115" fill="none" xmlns="http://www.w3.org/2000/svg">
<g clip-path="url(#clip0)">
<g filter="url(#filter0_dd)">
<rect width="84.0455" height="114.034" rx="4" fill="#FDFDFD"/>
</g>
<rect x="3.90909" y="3.93225" width="76.2273" height="106.169" rx="1" fill="#E6E6E6"/>
<path d="M70.5454 98.0948C70.0422 98.0948 69.5716 98.2158 69.1469 98.4151C69.7477 97.7764 70.1236 96.933 70.1236 95.9991C70.1236 94.0149 68.4699 92.4067 66.4298 92.4067C64.39 92.4067 62.7361 94.0149 62.7361 95.9989C62.7361 96.8775 63.0732 97.6718 63.6115 98.296C63.229 98.1416 62.8105 98.0545 62.3705 98.0545C60.5783 98.0545 59.125 99.468 59.125 101.211C59.125 102.954 60.5783 104.367 62.3705 104.367C63.5647 104.367 64.597 103.733 65.1605 102.799C65.3403 103.639 65.8139 106.796 62.8616 107.153H69.8432C69.8432 107.153 66.8036 106.838 67.6943 102.708C68.2376 103.706 69.3034 104.394 70.5454 104.394C72.334 104.394 73.7841 102.984 73.7841 101.244C73.7841 99.5044 72.334 98.0948 70.5454 98.0948Z" fill="#0C0815"/>
<path d="M58.734 84.1177C58.734 87.6537 62.608 89.0577 66.456 89.0577C70.304 89.0577 74.178 87.6537 74.178 84.1177C74.178 82.2457 72.826 80.6337 70.85 79.8017C72.67 79.0477 73.892 77.8257 73.892 75.7977C73.892 72.3917 70.018 71.1437 66.456 71.1437C62.894 71.1437 59.02 72.3917 59.02 75.7977C59.02 77.8257 60.216 79.0477 62.036 79.8017C60.06 80.6337 58.734 82.2457 58.734 84.1177ZM68.536 76.5777C68.536 77.2537 67.522 77.7997 66.456 77.9557C65.39 77.7997 64.35 77.2537 64.35 76.5777C64.35 75.9017 65.13 75.4077 66.456 75.4077C67.756 75.4077 68.536 75.9017 68.536 76.5777ZM68.848 83.5457C68.848 84.2997 67.886 84.7937 66.456 84.7937C64.974 84.7937 64.064 84.2997 64.064 83.5457C64.064 82.7397 65.338 82.1937 66.456 82.0377C67.548 82.1937 68.848 82.7397 68.848 83.5457Z" fill="#0C0815"/>
<path d="M50.75 53.4227C49.6765 53.4227 48.6724 53.6808 47.7665 54.106C49.0481 52.7434 49.8499 50.9442 49.8499 48.9518C49.8499 44.7188 46.3221 41.2881 41.9699 41.2881C37.6183 41.2881 34.09 44.7188 34.09 48.9513C34.09 50.8257 34.8092 52.5202 35.9575 53.8519C35.1415 53.5225 34.2488 53.3367 33.3101 53.3367C29.4867 53.3367 26.3864 56.352 26.3864 60.0708C26.3864 63.7891 29.4867 66.8035 33.3101 66.8035C35.8578 66.8035 38.06 65.4507 39.262 63.4583C39.6456 65.2511 40.656 71.9862 34.3577 72.7457H49.2519C49.2519 72.7457 42.7674 72.0757 44.6676 63.2651C45.8266 65.3941 48.1002 66.86 50.75 66.86C54.5656 66.86 57.6591 63.8526 57.6591 60.1411C57.6591 56.4297 54.5656 53.4227 50.75 53.4227Z" fill="#0C0815"/>
<path d="M21.6818 33.2135C21.1786 33.2135 20.7079 33.3345 20.2833 33.5338C20.8841 32.895 21.2599 32.0517 21.2599 31.1178C21.2599 29.1335 19.6062 27.5254 17.5662 27.5254C15.5263 27.5254 13.8724 29.1335 13.8724 31.1175C13.8724 31.9962 14.2096 32.7904 14.7478 33.4147C14.3653 33.2603 13.9469 33.1732 13.5069 33.1732C11.7146 33.1732 10.2614 34.5866 10.2614 36.3298C10.2614 38.0728 11.7146 39.4857 13.5069 39.4857C14.7011 39.4857 15.7334 38.8516 16.2968 37.9177C16.4766 38.7581 16.9503 41.9151 13.9979 42.2712H20.9796C20.9796 42.2712 17.94 41.9571 18.8307 37.8271C19.374 38.8251 20.4397 39.5122 21.6818 39.5122C23.4704 39.5122 24.9204 38.1025 24.9204 36.3628C24.9204 34.623 23.4704 33.2135 21.6818 33.2135Z" fill="#0C0815"/>
<path d="M9.87034 19.2364C9.87034 22.7724 13.7443 24.1764 17.5923 24.1764C21.4403 24.1764 25.3143 22.7724 25.3143 19.2364C25.3143 17.3644 23.9623 15.7524 21.9863 14.9204C23.8063 14.1664 25.0283 12.9444 25.0283 10.9164C25.0283 7.51038 21.1543 6.26238 17.5923 6.26238C14.0303 6.26238 10.1563 7.51038 10.1563 10.9164C10.1563 12.9444 11.3523 14.1664 13.1723 14.9204C11.1963 15.7524 9.87034 17.3644 9.87034 19.2364ZM19.6723 11.6964C19.6723 12.3724 18.6583 12.9184 17.5923 13.0744C16.5263 12.9184 15.4863 12.3724 15.4863 11.6964C15.4863 11.0204 16.2663 10.5264 17.5923 10.5264C18.8923 10.5264 19.6723 11.0204 19.6723 11.6964ZM19.9843 18.6644C19.9843 19.4184 19.0223 19.9124 17.5923 19.9124C16.1103 19.9124 15.2003 19.4184 15.2003 18.6644C15.2003 17.8584 16.4743 17.3124 17.5923 17.1564C18.6843 17.3124 19.9843 17.8584 19.9843 18.6644Z" fill="#0C0815"/>
</g>
<defs>
<filter id="filter0_dd" x="-1" y="0" width="86.0455" height="116.034" filterUnits="userSpaceOnUse" color-interpolation-filters="sRGB">
<feFlood flood-opacity="0" result="BackgroundImageFix"/>
<feColorMatrix in="SourceAlpha" type="matrix" values="0 0 0 0 0 0 0 0 0 0 0 0 0 0 0 0 0 0 127 0"/>
<feOffset dy="1"/>
<feColorMatrix type="matrix" values="0 0 0 0 0 0 0 0 0 0 0 0 0 0 0 0 0 0 0.103912 0"/>
<feBlend mode="normal" in2="BackgroundImageFix" result="effect1_dropShadow"/>
<feColorMatrix in="SourceAlpha" type="matrix" values="0 0 0 0 0 0 0 0 0 0 0 0 0 0 0 0 0 0 127 0"/>
<feOffset dy="1"/>
<feGaussianBlur stdDeviation="0.5"/>
<feColorMatrix type="matrix" values="0 0 0 0 0 0 0 0 0 0 0 0 0 0 0 0 0 0 0.195995 0"/>
<feBlend mode="normal" in2="effect1_dropShadow" result="effect2_dropShadow"/>
<feBlend mode="normal" in="SourceGraphic" in2="effect2_dropShadow" result="shape"/>
</filter>
<clipPath id="clip0">
<rect width="84.0455" height="114.034" fill="white"/>
</clipPath>
</defs>
</svg>
