<svg width="85" height="115" viewBox="0 0 85 115" fill="none" xmlns="http://www.w3.org/2000/svg">
<g clip-path="url(#clip0)">
<g filter="url(#filter0_dd)">
<rect width="84.0455" height="114.034" rx="4" fill="#FDFDFD"/>
</g>
<rect x="3.90909" y="3.93225" width="76.2273" height="106.169" rx="1" fill="#E6E6E6"/>
<path fill-rule="evenodd" clip-rule="evenodd" d="M73.0014 99.965L73.0053 99.963C73.0053 99.963 67.4603 93.0714 67.1025 92.6915C66.7447 92.312 66.1646 92.312 65.807 92.6915C65.4616 93.0578 60.3779 99.3939 60.0174 99.8434C59.4656 100.424 59.125 101.209 59.125 102.076C59.125 103.86 60.5607 105.307 62.3317 105.307C63.6109 105.307 64.7119 104.55 65.2266 103.459C65.3618 104.788 65.1966 106.871 62.7969 107.157H70.1221C70.1221 107.157 67.3735 106.878 67.6866 103.467C68.2029 104.554 69.3014 105.307 70.5774 105.307C72.3482 105.307 73.7841 103.86 73.7841 102.076C73.7841 101.268 73.4879 100.532 73.0014 99.965Z" fill="#0C0815"/>
<path d="M57.7274 88.7457H62.9794V71.4037H58.4554L51.8254 77.9037L54.7894 80.9977L57.7274 78.0857V88.7457ZM63.8617 80.0877C63.8617 84.7937 66.3837 89.0577 71.5577 89.0577C76.7317 89.0577 79.2537 84.7937 79.2537 80.0877C79.2537 75.3817 76.7317 71.1437 71.5577 71.1437C66.3837 71.1437 63.8617 75.3817 63.8617 80.0877ZM73.9757 80.0877C73.9757 83.0257 73.2217 84.4297 71.5577 84.4297C69.8937 84.4297 69.1397 83.0257 69.1397 80.0877C69.1397 77.1497 69.8937 75.7717 71.5577 75.7717C73.2217 75.7717 73.9757 77.1497 73.9757 80.0877Z" fill="#0C0815"/>
<path fill-rule="evenodd" clip-rule="evenodd" d="M55.9894 57.4126L55.9977 57.4082C55.9977 57.4082 44.1683 42.7061 43.4051 41.8956C42.6418 41.0861 41.4041 41.0861 40.6414 41.8956C39.9045 42.6771 29.0592 56.1941 28.2901 57.1531C27.113 58.3912 26.3864 60.0668 26.3864 61.9164C26.3864 65.7228 29.4491 68.8086 33.2273 68.8086C35.9563 68.8086 38.3052 67.1944 39.4032 64.8661C39.6914 67.7017 39.3391 72.1451 34.2197 72.7546H49.8468C49.8468 72.7546 43.9831 72.1603 44.6511 64.8838C45.7525 67.2028 48.096 68.8086 50.8182 68.8086C54.5958 68.8086 57.6591 65.7228 57.6591 61.9164C57.6591 60.1931 57.0273 58.6212 55.9894 57.4126Z" fill="#0C0815"/>
<path fill-rule="evenodd" clip-rule="evenodd" d="M24.1378 35.0837L24.1417 35.0816C24.1417 35.0816 18.5967 28.1901 18.2389 27.8101C17.8811 27.4306 17.3009 27.4306 16.9434 27.8101C16.598 28.1765 11.5143 34.5125 11.1537 34.962C10.602 35.5424 10.2614 36.3279 10.2614 37.1949C10.2614 38.9791 11.697 40.4256 13.468 40.4256C14.7473 40.4256 15.8483 39.6689 16.363 38.5775C16.4981 39.9067 16.333 41.9896 13.9332 42.2753H21.2584C21.2584 42.2753 18.5099 41.9967 18.823 38.5858C19.3392 39.6729 20.4378 40.4256 21.7138 40.4256C23.4846 40.4256 24.9205 38.9791 24.9205 37.1949C24.9205 36.3871 24.6243 35.6503 24.1378 35.0837Z" fill="#0C0815"/>
<path d="M8.86374 23.8644H14.1157V6.52238H9.59174L2.96174 13.0224L5.92574 16.1164L8.86374 13.2044V23.8644ZM14.9981 15.2064C14.9981 19.9124 17.5201 24.1764 22.6941 24.1764C27.8681 24.1764 30.3901 19.9124 30.3901 15.2064C30.3901 10.5004 27.8681 6.26238 22.6941 6.26238C17.5201 6.26238 14.9981 10.5004 14.9981 15.2064ZM25.1121 15.2064C25.1121 18.1444 24.3581 19.5484 22.6941 19.5484C21.0301 19.5484 20.2761 18.1444 20.2761 15.2064C20.2761 12.2684 21.0301 10.8904 22.6941 10.8904C24.3581 10.8904 25.1121 12.2684 25.1121 15.2064Z" fill="#0C0815"/>
</g>
<defs>
<filter id="filter0_dd" x="-1" y="0" width="86.0455" height="116.034" filterUnits="userSpaceOnUse" color-interpolation-filters="sRGB">
<feFlood flood-opacity="0" result="BackgroundImageFix"/>
<feColorMatrix in="SourceAlpha" type="matrix" values="0 0 0 0 0 0 0 0 0 0 0 0 0 0 0 0 0 0 127 0"/>
<feOffset dy="1"/>
<feColorMatrix type="matrix" values="0 0 0 0 0 0 0 0 0 0 0 0 0 0 0 0 0 0 0.103912 0"/>
<feBlend mode="normal" in2="BackgroundImageFix" result="effect1_dropShadow"/>
<feColorMatrix in="SourceAlpha" type="matrix" values="0 0 0 0 0 0 0 0 0 0 0 0 0 0 0 0 0 0 127 0"/>
<feOffset dy="1"/>
<feGaussianBlur stdDeviation="0.5"/>
<feColorMatrix type="matrix" values="0 0 0 0 0 0 0 0 0 0 0 0 0 0 0 0 0 0 0.195995 0"/>
<feBlend mode="normal" in2="effect1_dropShadow" result="effect2_dropShadow"/>
<feBlend mode="normal" in="SourceGraphic" in2="effect2_dropShadow" result="shape"/>
</filter>
<clipPath id="clip0">
<rect width="84.0455" height="114.034" fill="white"/>
</clipPath>
</defs>
</svg>
