<svg width="85" height="115" viewBox="0 0 85 115" fill="none" xmlns="http://www.w3.org/2000/svg">
<g clip-path="url(#clip0)">
<g filter="url(#filter0_dd)">
<rect width="84.0455" height="114.034" rx="4" fill="#FDFDFD"/>
</g>
<rect x="3.90912" y="3.93225" width="76.2273" height="106.169" rx="1" fill="#E6E6E6"/>
<path d="M70.5454 98.0948C70.0422 98.0948 69.5716 98.2158 69.1469 98.4151C69.7477 97.7764 70.1236 96.933 70.1236 95.9991C70.1236 94.0149 68.4699 92.4067 66.4298 92.4067C64.39 92.4067 62.7361 94.0149 62.7361 95.9989C62.7361 96.8775 63.0732 97.6718 63.6115 98.296C63.229 98.1416 62.8105 98.0545 62.3705 98.0545C60.5783 98.0545 59.125 99.468 59.125 101.211C59.125 102.954 60.5783 104.367 62.3705 104.367C63.5647 104.367 64.597 103.733 65.1605 102.799C65.3403 103.639 65.8139 106.796 62.8616 107.153H69.8432C69.8432 107.153 66.8036 106.838 67.6943 102.708C68.2376 103.706 69.3034 104.394 70.5454 104.394C72.334 104.394 73.7841 102.984 73.7841 101.244C73.7841 99.5044 72.334 98.0948 70.5454 98.0948Z" fill="#0C0815"/>
<path d="M58.7975 80.1137C58.7975 85.1837 61.3715 89.0577 67.0655 89.0577C71.1735 89.0577 74.2675 86.5877 74.2675 82.8177C74.2675 79.1257 71.2515 77.1757 68.1315 77.1757C66.5455 77.1757 64.9855 77.7997 64.1015 78.9437V78.8917C64.1015 76.7857 65.9215 75.5377 67.8975 75.5377C69.1715 75.5377 70.1075 75.7977 71.0955 76.4737L73.3055 72.6517C71.9275 71.7157 69.8735 71.1437 67.8975 71.1437C62.5155 71.1437 58.7975 74.3157 58.7975 80.1137ZM68.9375 83.0777C68.9375 83.9097 68.1835 84.6637 66.8315 84.6637C64.9075 84.6637 64.1795 83.2857 64.0755 82.1157C64.8035 81.6217 65.6355 81.4137 66.5195 81.4137C67.6895 81.4137 68.9375 81.8557 68.9375 83.0777Z" fill="#0C0815"/>
<path d="M50.75 53.4227C49.6765 53.4227 48.6724 53.6808 47.7665 54.106C49.0481 52.7434 49.8499 50.9442 49.8499 48.9518C49.8499 44.7188 46.3221 41.2881 41.9699 41.2881C37.6183 41.2881 34.09 44.7188 34.09 48.9513C34.09 50.8257 34.8092 52.5202 35.9575 53.8519C35.1415 53.5225 34.2488 53.3367 33.3101 53.3367C29.4867 53.3367 26.3864 56.352 26.3864 60.0708C26.3864 63.7891 29.4867 66.8035 33.3101 66.8035C35.8578 66.8035 38.06 65.4507 39.262 63.4583C39.6456 65.2511 40.656 71.9862 34.3577 72.7457H49.2519C49.2519 72.7457 42.7674 72.0757 44.6676 63.2651C45.8266 65.3941 48.1002 66.86 50.75 66.86C54.5656 66.86 57.6591 63.8526 57.6591 60.1411C57.6591 56.4297 54.5656 53.4227 50.75 53.4227Z" fill="#0C0815"/>
<path d="M21.6818 33.2135C21.1786 33.2135 20.7079 33.3345 20.2833 33.5338C20.8841 32.895 21.2599 32.0517 21.2599 31.1178C21.2599 29.1335 19.6062 27.5254 17.5662 27.5254C15.5263 27.5254 13.8724 29.1335 13.8724 31.1175C13.8724 31.9962 14.2096 32.7904 14.7478 33.4147C14.3653 33.2603 13.9469 33.1732 13.5069 33.1732C11.7146 33.1732 10.2614 34.5866 10.2614 36.3298C10.2614 38.0728 11.7146 39.4857 13.5069 39.4857C14.7011 39.4857 15.7334 38.8516 16.2968 37.9177C16.4766 38.7581 16.9503 41.9151 13.9979 42.2712H20.9796C20.9796 42.2712 17.94 41.9571 18.8307 37.8271C19.374 38.8251 20.4397 39.5122 21.6818 39.5122C23.4704 39.5122 24.9204 38.1025 24.9204 36.3628C24.9204 34.623 23.4704 33.2135 21.6818 33.2135Z" fill="#0C0815"/>
<path d="M9.93381 15.2324C9.93381 20.3024 12.5078 24.1764 18.2018 24.1764C22.3098 24.1764 25.4038 21.7064 25.4038 17.9364C25.4038 14.2444 22.3878 12.2944 19.2678 12.2944C17.6818 12.2944 16.1218 12.9184 15.2378 14.0624V14.0104C15.2378 11.9044 17.0578 10.6564 19.0338 10.6564C20.3078 10.6564 21.2438 10.9164 22.2318 11.5924L24.4418 7.77038C23.0638 6.83438 21.0098 6.26238 19.0338 6.26238C13.6518 6.26238 9.93381 9.43438 9.93381 15.2324ZM20.0738 18.1964C20.0738 19.0284 19.3198 19.7824 17.9678 19.7824C16.0438 19.7824 15.3158 18.4044 15.2118 17.2344C15.9398 16.7404 16.7718 16.5324 17.6558 16.5324C18.8258 16.5324 20.0738 16.9744 20.0738 18.1964Z" fill="#0C0815"/>
</g>
<defs>
<filter id="filter0_dd" x="-1" y="0" width="86.0455" height="116.034" filterUnits="userSpaceOnUse" color-interpolation-filters="sRGB">
<feFlood flood-opacity="0" result="BackgroundImageFix"/>
<feColorMatrix in="SourceAlpha" type="matrix" values="0 0 0 0 0 0 0 0 0 0 0 0 0 0 0 0 0 0 127 0"/>
<feOffset dy="1"/>
<feColorMatrix type="matrix" values="0 0 0 0 0 0 0 0 0 0 0 0 0 0 0 0 0 0 0.103912 0"/>
<feBlend mode="normal" in2="BackgroundImageFix" result="effect1_dropShadow"/>
<feColorMatrix in="SourceAlpha" type="matrix" values="0 0 0 0 0 0 0 0 0 0 0 0 0 0 0 0 0 0 127 0"/>
<feOffset dy="1"/>
<feGaussianBlur stdDeviation="0.5"/>
<feColorMatrix type="matrix" values="0 0 0 0 0 0 0 0 0 0 0 0 0 0 0 0 0 0 0.195995 0"/>
<feBlend mode="normal" in2="effect1_dropShadow" result="effect2_dropShadow"/>
<feBlend mode="normal" in="SourceGraphic" in2="effect2_dropShadow" result="shape"/>
</filter>
<clipPath id="clip0">
<rect width="84.0455" height="114.034" fill="white"/>
</clipPath>
</defs>
</svg>
