<?xml version="1.0" encoding="utf-8"?>
<!-- Generator: Adobe Illustrator 18.1.1, SVG Export Plug-In . SVG Version: 6.00 Build 0)  -->
<!DOCTYPE svg PUBLIC "-//W3C//DTD SVG 1.1//EN" "http://www.w3.org/Graphics/SVG/1.1/DTD/svg11.dtd">
<svg version="1.1" id="Layer_1" xmlns="http://www.w3.org/2000/svg" xmlns:xlink="http://www.w3.org/1999/xlink" x="0px" y="0px"
	 viewBox="0 190 640 100" enable-background="new 0 190 640 100" xml:space="preserve">
<g>
	<path fill="#3D3D42" d="M4.55,195.78h28.32c22.82,0,38.57,15.66,38.57,36.1v0.21c0,20.43-15.77,36.29-38.57,36.29H4.55V195.78z
		 M32.85,253.97c13.07,0,21.89-8.82,21.89-21.68v-0.21c0-12.86-8.82-21.89-21.89-21.89H20.51v43.76h12.34V253.97z"/>
	<path fill="#3D3D42" d="M75.29,195.78h54.75v14.21h-38.9v14.73h34.23v14.21H91.16v15.25h39.4v14.21H75.29V195.78z"/>
	<path fill="#3D3D42" d="M134.41,195.78h17.63l18.98,51.13l18.98-51.13h17.22l-29.34,73.11h-14.11L134.41,195.78z"/>
	<path fill="#3D3D42" d="M231.18,210.51h-22.09v-14.73h60.15v14.73h-22.09v57.87h-15.97v-57.87H231.18z"/>
	<path fill="#3D3D42" d="M277.35,195.78h54.75v14.21h-38.9v14.73h34.23v14.21H293.2v15.25h39.4v14.21h-55.26V195.78z"/>
	<path fill="#3D3D42" d="M339.79,257.81l9.44-11.31c6.53,5.39,13.38,8.82,21.68,8.82c6.53,0,10.48-2.59,10.48-6.85v-0.21
		c0-4.05-2.49-6.12-14.62-9.23c-14.62-3.73-24.06-7.78-24.06-22.2v-0.2c0-13.17,10.58-21.89,25.41-21.89
		c10.58,0,19.6,3.32,26.97,9.23l-8.3,12.03c-6.43-4.46-12.76-7.16-18.88-7.16s-9.34,2.8-9.34,6.33v0.21c0,4.77,3.11,6.33,15.66,9.54
		c14.73,3.84,23.02,9.13,23.02,21.78v0.21c0,14.42-10.99,22.51-26.66,22.51C359.61,269.41,348.51,265.59,339.79,257.81z"/>
	<path fill="#3D3D42" d="M426.51,210.51h-22.09v-14.73h60.15v14.73h-22.09v57.87h-15.97v-57.87H426.51z"/>
	<path fill="#3D3D42" d="M468.53,262.98h3.73v5.39h-3.73V262.98z"/>
	<path fill="#3D3D42" d="M506.38,243.39l-21.47,25h-2.49l22.72-26.35l-21.89-25.52h2.59l20.54,24.17l20.64-24.17h2.49l-21.89,25.52
		l22.71,26.35h-2.59L506.38,243.39z"/>
	<path fill="#3D3D42" d="M537.4,282.48l1.04-1.76c2.28,1.35,5.81,2.59,8.71,2.59c6.02,0,9.33-2.49,15.04-14.94l-25-51.85h2.39
		l23.65,49.57l22.3-49.57h2.28l-24.06,52.89c-6.02,13.28-9.85,15.87-16.6,15.87C543.52,285.28,539.78,283.93,537.4,282.48z"/>
	<path fill="#3D3D42" d="M595.07,267.13l39.51-48.64h-38.28v-1.97h41.48v1.24l-39.51,48.64h39.73v1.97h-42.93V267.13z"/>
</g>
</svg>
