<svg width="85" height="115" viewBox="0 0 85 115" fill="none" xmlns="http://www.w3.org/2000/svg">
<g clip-path="url(#clip0)">
<g filter="url(#filter0_dd)">
<rect width="84.0455" height="114.034" rx="4" fill="#FDFDFD"/>
</g>
<rect x="3.90912" y="3.93225" width="76.2273" height="106.169" rx="1" fill="#E6E6E6"/>
<path d="M70.5454 98.0948C70.0422 98.0948 69.5716 98.2158 69.1469 98.4151C69.7477 97.7764 70.1236 96.933 70.1236 95.9991C70.1236 94.0149 68.4699 92.4067 66.4298 92.4067C64.39 92.4067 62.7361 94.0149 62.7361 95.9989C62.7361 96.8775 63.0732 97.6718 63.6115 98.296C63.229 98.1416 62.8105 98.0545 62.3705 98.0545C60.5783 98.0545 59.125 99.468 59.125 101.211C59.125 102.954 60.5783 104.367 62.3705 104.367C63.5647 104.367 64.597 103.733 65.1605 102.799C65.3403 103.639 65.8139 106.796 62.8616 107.153H69.8432C69.8432 107.153 66.8036 106.838 67.6943 102.708C68.2376 103.706 69.3034 104.394 70.5454 104.394C72.334 104.394 73.7841 102.984 73.7841 101.244C73.7841 99.5044 72.334 98.0948 70.5454 98.0948Z" fill="#0C0815"/>
<path d="M58.743 86.3537C60.199 87.9137 62.799 89.0577 66.231 89.0577C70.729 89.0577 73.771 86.9517 73.771 83.8577C73.771 81.4657 71.587 80.0097 69.663 79.8017C71.873 79.4377 73.485 77.7997 73.485 75.9537C73.485 73.0937 71.041 71.1437 66.257 71.1437C62.877 71.1437 60.511 72.3137 58.977 74.0037L61.369 77.1757C62.565 76.1877 64.203 75.5637 65.685 75.5637C67.193 75.5637 68.259 76.0057 68.259 76.8117C68.259 77.4357 67.531 77.8517 65.867 77.8517C65.243 77.8517 63.683 77.8517 63.345 77.8257V82.2717C63.605 82.2457 65.113 82.2197 65.867 82.2197C68.181 82.2197 68.545 82.7137 68.545 83.3377C68.545 84.0397 67.739 84.6637 66.023 84.6637C64.697 84.6637 62.669 84.1177 61.317 82.9477L58.743 86.3537Z" fill="#0C0815"/>
<path d="M50.75 53.4227C49.6765 53.4227 48.6724 53.6808 47.7665 54.106C49.0481 52.7434 49.8499 50.9442 49.8499 48.9518C49.8499 44.7188 46.3221 41.2881 41.9699 41.2881C37.6183 41.2881 34.09 44.7188 34.09 48.9513C34.09 50.8257 34.8092 52.5202 35.9575 53.8519C35.1415 53.5225 34.2488 53.3367 33.3101 53.3367C29.4867 53.3367 26.3864 56.352 26.3864 60.0708C26.3864 63.7891 29.4867 66.8035 33.3101 66.8035C35.8578 66.8035 38.06 65.4507 39.262 63.4583C39.6456 65.2511 40.656 71.9862 34.3577 72.7457H49.2519C49.2519 72.7457 42.7674 72.0757 44.6676 63.2651C45.8266 65.3941 48.1002 66.86 50.75 66.86C54.5656 66.86 57.6591 63.8526 57.6591 60.1411C57.6591 56.4297 54.5656 53.4227 50.75 53.4227Z" fill="#0C0815"/>
<path d="M21.6818 33.2135C21.1786 33.2135 20.7079 33.3345 20.2833 33.5338C20.8841 32.895 21.2599 32.0517 21.2599 31.1178C21.2599 29.1335 19.6062 27.5254 17.5662 27.5254C15.5263 27.5254 13.8724 29.1335 13.8724 31.1175C13.8724 31.9962 14.2096 32.7904 14.7478 33.4147C14.3653 33.2603 13.9469 33.1732 13.5069 33.1732C11.7146 33.1732 10.2614 34.5866 10.2614 36.3298C10.2614 38.0728 11.7146 39.4857 13.5069 39.4857C14.7011 39.4857 15.7334 38.8516 16.2968 37.9177C16.4766 38.7581 16.9503 41.9151 13.9979 42.2712H20.9796C20.9796 42.2712 17.94 41.9571 18.8307 37.8271C19.374 38.8251 20.4397 39.5122 21.6818 39.5122C23.4704 39.5122 24.9204 38.1025 24.9204 36.3628C24.9204 34.623 23.4704 33.2135 21.6818 33.2135Z" fill="#0C0815"/>
<path d="M9.87938 21.4724C11.3354 23.0324 13.9354 24.1764 17.3674 24.1764C21.8654 24.1764 24.9074 22.0704 24.9074 18.9764C24.9074 16.5844 22.7234 15.1284 20.7994 14.9204C23.0094 14.5564 24.6214 12.9184 24.6214 11.0724C24.6214 8.21238 22.1774 6.26238 17.3934 6.26238C14.0134 6.26238 11.6474 7.43238 10.1134 9.12238L12.5054 12.2944C13.7014 11.3064 15.3394 10.6824 16.8214 10.6824C18.3294 10.6824 19.3954 11.1244 19.3954 11.9304C19.3954 12.5544 18.6674 12.9704 17.0034 12.9704C16.3794 12.9704 14.8194 12.9704 14.4814 12.9444V17.3904C14.7414 17.3644 16.2494 17.3384 17.0034 17.3384C19.3174 17.3384 19.6814 17.8324 19.6814 18.4564C19.6814 19.1584 18.8754 19.7824 17.1594 19.7824C15.8334 19.7824 13.8054 19.2364 12.4534 18.0664L9.87938 21.4724Z" fill="#0C0815"/>
</g>
<defs>
<filter id="filter0_dd" x="-1" y="0" width="86.0455" height="116.034" filterUnits="userSpaceOnUse" color-interpolation-filters="sRGB">
<feFlood flood-opacity="0" result="BackgroundImageFix"/>
<feColorMatrix in="SourceAlpha" type="matrix" values="0 0 0 0 0 0 0 0 0 0 0 0 0 0 0 0 0 0 127 0"/>
<feOffset dy="1"/>
<feColorMatrix type="matrix" values="0 0 0 0 0 0 0 0 0 0 0 0 0 0 0 0 0 0 0.103912 0"/>
<feBlend mode="normal" in2="BackgroundImageFix" result="effect1_dropShadow"/>
<feColorMatrix in="SourceAlpha" type="matrix" values="0 0 0 0 0 0 0 0 0 0 0 0 0 0 0 0 0 0 127 0"/>
<feOffset dy="1"/>
<feGaussianBlur stdDeviation="0.5"/>
<feColorMatrix type="matrix" values="0 0 0 0 0 0 0 0 0 0 0 0 0 0 0 0 0 0 0.195995 0"/>
<feBlend mode="normal" in2="effect1_dropShadow" result="effect2_dropShadow"/>
<feBlend mode="normal" in="SourceGraphic" in2="effect2_dropShadow" result="shape"/>
</filter>
<clipPath id="clip0">
<rect width="84.0455" height="114.034" fill="white"/>
</clipPath>
</defs>
</svg>
