<svg xmlns="http://www.w3.org/2000/svg" width="85" height="115" fill="none" viewBox="0 0 85 115">
    <g clip-path="url(#clip0)">
        <g filter="url(#filter0_dd)">
            <rect width="84.046" height="114.034" fill="#FDFDFD" rx="4"/>
        </g>
        <rect width="76.227" height="106.169" x="3.909" y="3.932" fill="#E6E6E6" rx="1"/>
        <path fill="#0C0815" d="M70.545 98.095c-.503 0-.973.12-1.398.32.6-.639.977-1.482.977-2.416 0-1.984-1.654-3.592-3.694-3.592s-3.694 1.608-3.694 3.592c0 .879.337 1.673.876 2.297-.383-.154-.802-.242-1.242-.242-1.792 0-3.245 1.414-3.245 3.157s1.453 3.156 3.245 3.156c1.195 0 2.227-.634 2.79-1.568.18.84.654 3.997-2.298 4.354h6.981s-3.04-.315-2.149-4.445c.544.998 1.61 1.686 2.851 1.686 1.789 0 3.24-1.41 3.24-3.15s-1.451-3.15-3.24-3.15zM59.603 87.524c1.378.936 3.432 1.508 5.408 1.508 5.383 0 9.1-3.172 9.1-8.97 0-5.07-2.574-8.944-8.267-8.944-4.108 0-7.202 2.47-7.202 6.24 0 3.692 3.015 5.642 6.136 5.642 1.585 0 3.145-.624 4.03-1.768v.052c0 2.106-1.82 3.354-3.797 3.354-1.273 0-2.21-.234-3.197-.936l-2.21 3.822zm9.23-9.464c-.727.494-1.56.702-2.444.702-1.17 0-2.417-.442-2.417-1.664 0-.832.753-1.586 2.105-1.586 1.924 0 2.653 1.378 2.757 2.548zM50.75 53.423c-1.074 0-2.078.258-2.983.683 1.281-1.363 2.083-3.162 2.083-5.154 0-4.233-3.528-7.664-7.88-7.664s-7.88 3.43-7.88 7.663c0 1.875.72 3.57 1.867 4.9-.816-.328-1.708-.514-2.647-.514-3.823 0-6.924 3.015-6.924 6.734 0 3.718 3.1 6.733 6.924 6.733 2.548 0 4.75-1.353 5.952-3.346.384 1.793 1.394 8.528-4.904 9.288h14.894s-6.485-.67-4.584-9.48c1.159 2.128 3.432 3.594 6.082 3.594 3.816 0 6.91-3.007 6.91-6.719 0-3.711-3.094-6.718-6.91-6.718zM21.682 33.214c-.503 0-.974.12-1.399.32.601-.639.977-1.482.977-2.416 0-1.984-1.654-3.593-3.694-3.593s-3.694 1.609-3.694 3.593c0 .878.338 1.672.876 2.297-.383-.155-.801-.242-1.241-.242-1.792 0-3.246 1.414-3.246 3.157s1.454 3.156 3.246 3.156c1.194 0 2.226-.634 2.79-1.568.18.84.653 3.997-2.3 4.353h6.983s-3.04-.314-2.15-4.444c.544.998 1.61 1.685 2.852 1.685 1.788 0 3.238-1.41 3.238-3.15 0-1.739-1.45-3.148-3.238-3.148zM10.74 22.642c1.378.936 3.432 1.508 5.408 1.508 5.382 0 9.1-3.172 9.1-8.97 0-5.07-2.574-8.944-8.268-8.944-4.108 0-7.202 2.47-7.202 6.24 0 3.692 3.016 5.642 6.136 5.642 1.586 0 3.146-.624 4.03-1.768v.052c0 2.106-1.82 3.354-3.796 3.354-1.274 0-2.21-.234-3.198-.936l-2.21 3.822zm9.23-9.464c-.728.494-1.56.702-2.444.702-1.17 0-2.418-.442-2.418-1.664 0-.832.754-1.586 2.106-1.586 1.924 0 2.652 1.378 2.756 2.548z"/>
    </g>
    <defs>
        <clipPath id="clip0">
            <path fill="#fff" d="M0 0H84.046V114.034H0z"/>
        </clipPath>
        <filter id="filter0_dd" width="86.046" height="116.034" x="-1" y="0" color-interpolation-filters="sRGB" filterUnits="userSpaceOnUse">
            <feFlood flood-opacity="0" result="BackgroundImageFix"/>
            <feColorMatrix in="SourceAlpha" values="0 0 0 0 0 0 0 0 0 0 0 0 0 0 0 0 0 0 127 0"/>
            <feOffset dy="1"/>
            <feColorMatrix values="0 0 0 0 0 0 0 0 0 0 0 0 0 0 0 0 0 0 0.103912 0"/>
            <feBlend in2="BackgroundImageFix" result="effect1_dropShadow"/>
            <feColorMatrix in="SourceAlpha" values="0 0 0 0 0 0 0 0 0 0 0 0 0 0 0 0 0 0 127 0"/>
            <feOffset dy="1"/>
            <feGaussianBlur stdDeviation=".5"/>
            <feColorMatrix values="0 0 0 0 0 0 0 0 0 0 0 0 0 0 0 0 0 0 0.195995 0"/>
            <feBlend in2="effect1_dropShadow" result="effect2_dropShadow"/>
            <feBlend in="SourceGraphic" in2="effect2_dropShadow" result="shape"/>
        </filter>
    </defs>
</svg>
