<svg width="87" height="116" viewBox="0 0 87 116" fill="none" xmlns="http://www.w3.org/2000/svg">
<g clip-path="url(#clip0)">
<g filter="url(#filter0_dd)">
<rect x="0.0224609" width="86" height="116" rx="4" fill="#FDFDFD"/>
</g>
<rect x="4.02246" y="4" width="78" height="108" rx="1" fill="#E6E6E6"/>
<path d="M43.0225 42C39.393 48.8976 34.289 54.1942 27.0225 57.9998C34.2085 61.6693 39.0635 67.0894 43.0225 74C46.951 67.2389 52.0775 62.1648 59.0225 57.9998C51.8275 54.2647 46.782 49.1826 43.0225 42Z" fill="#FF4D75"/>
<path d="M18.0225 28C16.3211 31.2333 13.9286 33.716 10.5225 35.4999C13.8909 37.22 16.1667 39.7607 18.0225 43C19.8639 39.8307 22.267 37.4523 25.5225 35.4999C22.1498 33.7491 19.7847 31.3668 18.0225 28Z" fill="#FF4D75"/>
<path d="M9.9772 25H15.2292V7.658H10.7052L4.0752 14.158L7.0392 17.252L9.9772 14.34V25ZM16.1116 16.342C16.1116 21.048 18.6336 25.312 23.8076 25.312C28.9816 25.312 31.5036 21.048 31.5036 16.342C31.5036 11.636 28.9816 7.398 23.8076 7.398C18.6336 7.398 16.1116 11.636 16.1116 16.342ZM26.2256 16.342C26.2256 19.28 25.4716 20.684 23.8076 20.684C22.1436 20.684 21.3896 19.28 21.3896 16.342C21.3896 13.404 22.1436 12.026 23.8076 12.026C25.4716 12.026 26.2256 13.404 26.2256 16.342Z" fill="#FF4D75"/>
<path d="M68.0225 94C66.3211 97.2333 63.9286 99.716 60.5225 101.5C63.8909 103.22 66.1667 105.761 68.0225 109C69.8639 105.831 72.267 103.452 75.5225 101.5C72.1498 99.7491 69.7847 97.3668 68.0225 94Z" fill="#FF4D75"/>
<path d="M59.9772 91H65.2292V73.658H60.7052L54.0752 80.158L57.0392 83.252L59.9772 80.34V91ZM66.1116 82.342C66.1116 87.048 68.6336 91.312 73.8076 91.312C78.9816 91.312 81.5036 87.048 81.5036 82.342C81.5036 77.636 78.9816 73.398 73.8076 73.398C68.6336 73.398 66.1116 77.636 66.1116 82.342ZM76.2256 82.342C76.2256 85.28 75.4716 86.684 73.8076 86.684C72.1436 86.684 71.3896 85.28 71.3896 82.342C71.3896 79.404 72.1436 78.026 73.8076 78.026C75.4716 78.026 76.2256 79.404 76.2256 82.342Z" fill="#FF4D75"/>
</g>
<defs>
<filter id="filter0_dd" x="-0.977539" y="0" width="88" height="118" filterUnits="userSpaceOnUse" color-interpolation-filters="sRGB">
<feFlood flood-opacity="0" result="BackgroundImageFix"/>
<feColorMatrix in="SourceAlpha" type="matrix" values="0 0 0 0 0 0 0 0 0 0 0 0 0 0 0 0 0 0 127 0"/>
<feOffset dy="1"/>
<feColorMatrix type="matrix" values="0 0 0 0 0 0 0 0 0 0 0 0 0 0 0 0 0 0 0.103912 0"/>
<feBlend mode="normal" in2="BackgroundImageFix" result="effect1_dropShadow"/>
<feColorMatrix in="SourceAlpha" type="matrix" values="0 0 0 0 0 0 0 0 0 0 0 0 0 0 0 0 0 0 127 0"/>
<feOffset dy="1"/>
<feGaussianBlur stdDeviation="0.5"/>
<feColorMatrix type="matrix" values="0 0 0 0 0 0 0 0 0 0 0 0 0 0 0 0 0 0 0.195995 0"/>
<feBlend mode="normal" in2="effect1_dropShadow" result="effect2_dropShadow"/>
<feBlend mode="normal" in="SourceGraphic" in2="effect2_dropShadow" result="shape"/>
</filter>
<clipPath id="clip0">
<rect width="86" height="116" fill="white" transform="translate(0.0224609)"/>
</clipPath>
</defs>
</svg>
