<svg width="87" height="116" viewBox="0 0 87 116" fill="none" xmlns="http://www.w3.org/2000/svg">
<g clip-path="url(#clip0)">
<g filter="url(#filter0_dd)">
<rect x="0.0224609" width="86" height="116" rx="4" fill="#FDFDFD"/>
</g>
<rect x="4.02246" y="4" width="78" height="108" rx="1" fill="#E6E6E6"/>
<path d="M43.0225 42C39.393 48.8976 34.289 54.1942 27.0225 57.9998C34.2085 61.6693 39.0635 67.0894 43.0225 74C46.951 67.2389 52.0775 62.1648 59.0225 57.9998C51.8275 54.2647 46.782 49.1826 43.0225 42Z" fill="#FF4D75"/>
<path d="M18.0225 28C16.3211 31.2333 13.9286 33.716 10.5225 35.4999C13.8909 37.22 16.1667 39.7607 18.0225 43C19.8639 39.8307 22.267 37.4523 25.5225 35.4999C22.1498 33.7491 19.7847 31.3668 18.0225 28Z" fill="#FF4D75"/>
<path d="M10.302 20.372C10.302 23.908 14.176 25.312 18.024 25.312C21.872 25.312 25.746 23.908 25.746 20.372C25.746 18.5 24.394 16.888 22.418 16.056C24.238 15.302 25.46 14.08 25.46 12.052C25.46 8.646 21.586 7.398 18.024 7.398C14.462 7.398 10.588 8.646 10.588 12.052C10.588 14.08 11.784 15.302 13.604 16.056C11.628 16.888 10.302 18.5 10.302 20.372ZM20.104 12.832C20.104 13.508 19.09 14.054 18.024 14.21C16.958 14.054 15.918 13.508 15.918 12.832C15.918 12.156 16.698 11.662 18.024 11.662C19.324 11.662 20.104 12.156 20.104 12.832ZM20.416 19.8C20.416 20.554 19.454 21.048 18.024 21.048C16.542 21.048 15.632 20.554 15.632 19.8C15.632 18.994 16.906 18.448 18.024 18.292C19.116 18.448 20.416 18.994 20.416 19.8Z" fill="#FF4D75"/>
<path d="M68.0225 94C66.3211 97.2333 63.9286 99.716 60.5225 101.5C63.8909 103.22 66.1667 105.761 68.0225 109C69.8639 105.831 72.267 103.452 75.5225 101.5C72.1498 99.7491 69.7847 97.3668 68.0225 94Z" fill="#FF4D75"/>
<path d="M60.302 86.372C60.302 89.908 64.176 91.312 68.024 91.312C71.872 91.312 75.746 89.908 75.746 86.372C75.746 84.5 74.394 82.888 72.418 82.056C74.238 81.302 75.46 80.08 75.46 78.052C75.46 74.646 71.586 73.398 68.024 73.398C64.462 73.398 60.588 74.646 60.588 78.052C60.588 80.08 61.784 81.302 63.604 82.056C61.628 82.888 60.302 84.5 60.302 86.372ZM70.104 78.832C70.104 79.508 69.09 80.054 68.024 80.21C66.958 80.054 65.918 79.508 65.918 78.832C65.918 78.156 66.698 77.662 68.024 77.662C69.324 77.662 70.104 78.156 70.104 78.832ZM70.416 85.8C70.416 86.554 69.454 87.048 68.024 87.048C66.542 87.048 65.632 86.554 65.632 85.8C65.632 84.994 66.906 84.448 68.024 84.292C69.116 84.448 70.416 84.994 70.416 85.8Z" fill="#FF4D75"/>
</g>
<defs>
<filter id="filter0_dd" x="-0.977539" y="0" width="88" height="118" filterUnits="userSpaceOnUse" color-interpolation-filters="sRGB">
<feFlood flood-opacity="0" result="BackgroundImageFix"/>
<feColorMatrix in="SourceAlpha" type="matrix" values="0 0 0 0 0 0 0 0 0 0 0 0 0 0 0 0 0 0 127 0"/>
<feOffset dy="1"/>
<feColorMatrix type="matrix" values="0 0 0 0 0 0 0 0 0 0 0 0 0 0 0 0 0 0 0.103912 0"/>
<feBlend mode="normal" in2="BackgroundImageFix" result="effect1_dropShadow"/>
<feColorMatrix in="SourceAlpha" type="matrix" values="0 0 0 0 0 0 0 0 0 0 0 0 0 0 0 0 0 0 127 0"/>
<feOffset dy="1"/>
<feGaussianBlur stdDeviation="0.5"/>
<feColorMatrix type="matrix" values="0 0 0 0 0 0 0 0 0 0 0 0 0 0 0 0 0 0 0.195995 0"/>
<feBlend mode="normal" in2="effect1_dropShadow" result="effect2_dropShadow"/>
<feBlend mode="normal" in="SourceGraphic" in2="effect2_dropShadow" result="shape"/>
</filter>
<clipPath id="clip0">
<rect width="86" height="116" fill="white" transform="translate(0.0224609)"/>
</clipPath>
</defs>
</svg>
