<svg width="87" height="116" viewBox="0 0 87 116" fill="none" xmlns="http://www.w3.org/2000/svg">
<g clip-path="url(#clip0)">
<g filter="url(#filter0_dd)">
<rect x="0.0224609" width="86" height="116" rx="4" fill="#FDFDFD"/>
</g>
<rect x="4.02246" y="4" width="78" height="108" rx="1" fill="#E6E6E6"/>
<path d="M50.5213 42C45.077 42 43.0705 47.3135 43.0705 47.3135C43.0705 47.3135 40.7779 42 35.6196 42C29.9832 42 27.0225 47.1935 27.0225 52.3892C27.0225 61.0129 43.0705 74 43.0705 74C43.0705 74 59.0225 61.1158 59.0225 52.3892C59.0225 47.0905 55.9667 42 50.5213 42Z" fill="#FF4D75"/>
<path d="M21.5376 28C18.9855 28 18.045 30.4907 18.045 30.4907C18.045 30.4907 16.9703 28 14.5524 28C11.9103 28 10.5225 30.4344 10.5225 32.8699C10.5225 36.9123 18.045 43 18.045 43C18.045 43 25.5225 36.9606 25.5225 32.8699C25.5225 30.3862 24.0901 28 21.5376 28Z" fill="#FF4D75"/>
<path d="M11.1715 23.778C12.5495 24.714 14.6035 25.286 16.5795 25.286C21.9615 25.286 25.6795 22.114 25.6795 16.316C25.6795 11.246 23.1055 7.372 17.4115 7.372C13.3035 7.372 10.2095 9.842 10.2095 13.612C10.2095 17.304 13.2255 19.254 16.3455 19.254C17.9315 19.254 19.4915 18.63 20.3755 17.486V17.538C20.3755 19.644 18.5555 20.892 16.5795 20.892C15.3055 20.892 14.3695 20.658 13.3815 19.956L11.1715 23.778ZM20.4015 14.314C19.6735 14.808 18.8415 15.016 17.9575 15.016C16.7875 15.016 15.5395 14.574 15.5395 13.352C15.5395 12.52 16.2935 11.766 17.6455 11.766C19.5695 11.766 20.2975 13.144 20.4015 14.314Z" fill="#FF4D75"/>
<path d="M71.5376 94C68.9855 94 68.045 96.4907 68.045 96.4907C68.045 96.4907 66.9703 94 64.5524 94C61.9103 94 60.5225 96.4344 60.5225 98.8699C60.5225 102.912 68.045 109 68.045 109C68.045 109 75.5225 102.961 75.5225 98.8699C75.5225 96.3862 74.0901 94 71.5376 94Z" fill="#FF4D75"/>
<path d="M61.1715 89.778C62.5495 90.714 64.6035 91.286 66.5795 91.286C71.9615 91.286 75.6795 88.114 75.6795 82.316C75.6795 77.246 73.1055 73.372 67.4115 73.372C63.3035 73.372 60.2095 75.842 60.2095 79.612C60.2095 83.304 63.2255 85.254 66.3455 85.254C67.9315 85.254 69.4915 84.63 70.3755 83.486V83.538C70.3755 85.644 68.5555 86.892 66.5795 86.892C65.3055 86.892 64.3695 86.658 63.3815 85.956L61.1715 89.778ZM70.4015 80.314C69.6735 80.808 68.8415 81.016 67.9575 81.016C66.7875 81.016 65.5395 80.574 65.5395 79.352C65.5395 78.52 66.2935 77.766 67.6455 77.766C69.5695 77.766 70.2975 79.144 70.4015 80.314Z" fill="#FF4D75"/>
</g>
<defs>
<filter id="filter0_dd" x="-0.977539" y="0" width="88" height="118" filterUnits="userSpaceOnUse" color-interpolation-filters="sRGB">
<feFlood flood-opacity="0" result="BackgroundImageFix"/>
<feColorMatrix in="SourceAlpha" type="matrix" values="0 0 0 0 0 0 0 0 0 0 0 0 0 0 0 0 0 0 127 0"/>
<feOffset dy="1"/>
<feColorMatrix type="matrix" values="0 0 0 0 0 0 0 0 0 0 0 0 0 0 0 0 0 0 0.103912 0"/>
<feBlend mode="normal" in2="BackgroundImageFix" result="effect1_dropShadow"/>
<feColorMatrix in="SourceAlpha" type="matrix" values="0 0 0 0 0 0 0 0 0 0 0 0 0 0 0 0 0 0 127 0"/>
<feOffset dy="1"/>
<feGaussianBlur stdDeviation="0.5"/>
<feColorMatrix type="matrix" values="0 0 0 0 0 0 0 0 0 0 0 0 0 0 0 0 0 0 0.195995 0"/>
<feBlend mode="normal" in2="effect1_dropShadow" result="effect2_dropShadow"/>
<feBlend mode="normal" in="SourceGraphic" in2="effect2_dropShadow" result="shape"/>
</filter>
<clipPath id="clip0">
<rect width="86" height="116" fill="white" transform="translate(0.0224609)"/>
</clipPath>
</defs>
</svg>
