<svg width="85" height="115" viewBox="0 0 85 115" fill="none" xmlns="http://www.w3.org/2000/svg">
<g clip-path="url(#clip0)">
<g filter="url(#filter0_dd)">
<rect width="84.0455" height="114.034" rx="4" fill="#FDFDFD"/>
</g>
<rect x="3.90912" y="3.93225" width="76.2273" height="106.169" rx="1" fill="#E6E6E6"/>
<path fill-rule="evenodd" clip-rule="evenodd" d="M73.0014 99.965L73.0053 99.963C73.0053 99.963 67.4603 93.0714 67.1025 92.6915C66.7447 92.312 66.1646 92.312 65.807 92.6915C65.4616 93.0578 60.3779 99.3939 60.0174 99.8434C59.4656 100.424 59.125 101.209 59.125 102.076C59.125 103.86 60.5607 105.307 62.3317 105.307C63.6109 105.307 64.7119 104.55 65.2266 103.459C65.3618 104.788 65.1966 106.871 62.7969 107.157H70.1221C70.1221 107.157 67.3735 106.878 67.6866 103.467C68.2029 104.554 69.3014 105.307 70.5774 105.307C72.3482 105.307 73.7841 103.86 73.7841 102.076C73.7841 101.268 73.4879 100.532 73.0014 99.965Z" fill="#0C0815"/>
<path d="M58.743 86.3537C60.199 87.9137 62.799 89.0577 66.231 89.0577C70.729 89.0577 73.771 86.9517 73.771 83.8577C73.771 81.4657 71.587 80.0097 69.663 79.8017C71.873 79.4377 73.485 77.7997 73.485 75.9537C73.485 73.0937 71.041 71.1437 66.257 71.1437C62.877 71.1437 60.511 72.3137 58.977 74.0037L61.369 77.1757C62.565 76.1877 64.203 75.5637 65.685 75.5637C67.193 75.5637 68.259 76.0057 68.259 76.8117C68.259 77.4357 67.531 77.8517 65.867 77.8517C65.243 77.8517 63.683 77.8517 63.345 77.8257V82.2717C63.605 82.2457 65.113 82.2197 65.867 82.2197C68.181 82.2197 68.545 82.7137 68.545 83.3377C68.545 84.0397 67.739 84.6637 66.023 84.6637C64.697 84.6637 62.669 84.1177 61.317 82.9477L58.743 86.3537Z" fill="#0C0815"/>
<path fill-rule="evenodd" clip-rule="evenodd" d="M55.9894 57.4126L55.9977 57.4082C55.9977 57.4082 44.1683 42.7061 43.4051 41.8956C42.6418 41.0861 41.4041 41.0861 40.6413 41.8956C39.9045 42.6771 29.0592 56.1941 28.2901 57.1531C27.113 58.3912 26.3864 60.0668 26.3864 61.9164C26.3864 65.7228 29.4491 68.8086 33.2273 68.8086C35.9563 68.8086 38.3052 67.1944 39.4031 64.8661C39.6914 67.7017 39.3391 72.1451 34.2197 72.7546H49.8468C49.8468 72.7546 43.9831 72.1603 44.6511 64.8838C45.7525 67.2028 48.096 68.8086 50.8182 68.8086C54.5958 68.8086 57.6591 65.7228 57.6591 61.9164C57.6591 60.1931 57.0273 58.6212 55.9894 57.4126Z" fill="#0C0815"/>
<path fill-rule="evenodd" clip-rule="evenodd" d="M24.1378 35.0837L24.1417 35.0816C24.1417 35.0816 18.5966 28.1901 18.2389 27.8101C17.8811 27.4306 17.3009 27.4306 16.9434 27.8101C16.598 28.1765 11.5142 34.5125 11.1537 34.962C10.6019 35.5424 10.2614 36.3279 10.2614 37.1949C10.2614 38.9791 11.697 40.4256 13.468 40.4256C14.7473 40.4256 15.8483 39.6689 16.363 38.5775C16.4981 39.9067 16.333 41.9896 13.9332 42.2753H21.2584C21.2584 42.2753 18.5098 41.9967 18.8229 38.5858C19.3392 39.6729 20.4377 40.4256 21.7138 40.4256C23.4845 40.4256 24.9204 38.9791 24.9204 37.1949C24.9204 36.3871 24.6243 35.6503 24.1378 35.0837Z" fill="#0C0815"/>
<path d="M9.87938 21.4724C11.3354 23.0324 13.9354 24.1764 17.3674 24.1764C21.8654 24.1764 24.9074 22.0704 24.9074 18.9764C24.9074 16.5844 22.7234 15.1284 20.7994 14.9204C23.0094 14.5564 24.6214 12.9184 24.6214 11.0724C24.6214 8.21238 22.1774 6.26238 17.3934 6.26238C14.0134 6.26238 11.6474 7.43238 10.1134 9.12238L12.5054 12.2944C13.7014 11.3064 15.3394 10.6824 16.8214 10.6824C18.3294 10.6824 19.3954 11.1244 19.3954 11.9304C19.3954 12.5544 18.6674 12.9704 17.0034 12.9704C16.3794 12.9704 14.8194 12.9704 14.4814 12.9444V17.3904C14.7414 17.3644 16.2494 17.3384 17.0034 17.3384C19.3174 17.3384 19.6814 17.8324 19.6814 18.4564C19.6814 19.1584 18.8754 19.7824 17.1594 19.7824C15.8334 19.7824 13.8054 19.2364 12.4534 18.0664L9.87938 21.4724Z" fill="#0C0815"/>
</g>
<defs>
<filter id="filter0_dd" x="-1" y="0" width="86.0455" height="116.034" filterUnits="userSpaceOnUse" color-interpolation-filters="sRGB">
<feFlood flood-opacity="0" result="BackgroundImageFix"/>
<feColorMatrix in="SourceAlpha" type="matrix" values="0 0 0 0 0 0 0 0 0 0 0 0 0 0 0 0 0 0 127 0"/>
<feOffset dy="1"/>
<feColorMatrix type="matrix" values="0 0 0 0 0 0 0 0 0 0 0 0 0 0 0 0 0 0 0.103912 0"/>
<feBlend mode="normal" in2="BackgroundImageFix" result="effect1_dropShadow"/>
<feColorMatrix in="SourceAlpha" type="matrix" values="0 0 0 0 0 0 0 0 0 0 0 0 0 0 0 0 0 0 127 0"/>
<feOffset dy="1"/>
<feGaussianBlur stdDeviation="0.5"/>
<feColorMatrix type="matrix" values="0 0 0 0 0 0 0 0 0 0 0 0 0 0 0 0 0 0 0.195995 0"/>
<feBlend mode="normal" in2="effect1_dropShadow" result="effect2_dropShadow"/>
<feBlend mode="normal" in="SourceGraphic" in2="effect2_dropShadow" result="shape"/>
</filter>
<clipPath id="clip0">
<rect width="84.0455" height="114.034" fill="white"/>
</clipPath>
</defs>
</svg>
