<svg width="75" height="24" xmlns="http://www.w3.org/2000/svg" xmlns:xlink="http://www.w3.org/1999/xlink"><defs><path id="a" d="M.058.075h2.526v2.527H.058z"/></defs><g fill="none" fill-rule="evenodd"><path d="M3.69.26c.55 0 .993.449.993.999v2.685c0 .552-.444 1-.992 1H.99a.995.995 0 0 1-.991-1V1.259C0 .709.443.26.99.26h2.7zM3.897 7.805h-2.85A1.04 1.04 0 0 0 0 8.839v14.315h3.897a1.04 1.04 0 0 0 1.046-1.033V8.839a1.04 1.04 0 0 0-1.046-1.034" fill="#0096D6"/><path d="M20.539 0l-7.232.164C8.87.316 7.104 3.58 7.104 6.756l-.08 16.398h4.045c.582 0 1.054-.463 1.054-1.037l-.047-6.485c0-.593.422-1.039 1.024-1.039h3.818c.583 0 1.055-.464 1.055-1.036v-2.35c0-.573-.472-1.036-1.055-1.036h-4.82V7.42c0-1.662.887-2.348 2.877-2.348l5.564-.013c.582 0 1.054-.464 1.054-1.037V1.037C21.593.465 21.121 0 20.54 0M27.831.26h-2.85c-.578 0-1.046.467-1.046 1.045v22.11h3.896c.579 0 1.047-.468 1.047-1.045V1.305c0-.578-.468-1.045-1.047-1.045M44.69 6.756c0-3.175-1.767-6.44-6.208-6.593L32.277 0c-.583 0-1.057.464-1.057 1.037v2.986c0 .573.474 1.037 1.057 1.037l4.534.014c1.993 0 2.88.684 2.88 2.346l-.083 15.734h4.083c.585 0 1.057-.463 1.057-1.036l-.057-15.362zM52.017 0s-6.54.15-7.394.15c-.742.06-.843.563-.36 1.012 1.685 1.472 1.921 3.876 1.921 3.992l5.833.05c.584 0 1.056-.481 1.056-1.075V1.076C53.073.48 52.601 0 52.017 0" fill-opacity=".8" fill="#2E3134"/><g transform="translate(50.732 20.813)"><mask id="b" fill="#fff"><use xlink:href="#a"/></mask><path d="M1.322 2.602a1.264 1.264 0 1 1 0-2.529 1.264 1.264 0 0 1 0 2.529zm0-2.336a1.07 1.07 0 1 0 0 2.144 1.072 1.072 0 0 0 0-2.144zm.344 1.8l-.375-.574h-.25v.574H.84V.616h.59c.244 0 .47.174.47.442 0 .322-.286.43-.37.43l.387.578h-.25zM1.428.796h-.387v.512h.387c.125 0 .262-.101.262-.25a.265.265 0 0 0-.262-.262z" fill-opacity=".8" fill="#2E3134" mask="url(#b)"/></g><path d="M74.489 10.611l-3.487-3.353c-.498-.416-.88-.242-.929.254-.005.054-.004.266-.006.312a6.53 6.53 0 0 1-.79 2.907c-.671 1.238-1.895 2.185-2.902 3.153-3.307 3.178-9.4 9.01-9.4 9.01h6.495c.368 0 .722-.143.985-.399l10.034-9.801a1.456 1.456 0 0 0 0-2.083" fill="#0096D6"/><path d="M67.207 3.356c-.109-.13-2.446-2.5-2.446-2.5a2.73 2.73 0 0 0-.27-.232A1.737 1.737 0 0 0 63.406.26h-6.43l4.508 4.35 1.248 1.2 4.736 4.553c.07.068.189.055.24-.028 1.255-2.017 1.507-4.576-.501-6.979" fill="#0096D6"/></g></svg>